<?xml version="1.0" encoding="UTF-8"?>
<svg width="3624px" height="3624px" viewBox="0 0 3624 3624" version="1.1" xmlns="http://www.w3.org/2000/svg" xmlns:xlink="http://www.w3.org/1999/xlink">
    <!-- Generator: Sketch 47.1 (45422) - http://www.bohemiancoding.com/sketch -->
    <title>Group Copy 2</title>
    <desc>Created with Sketch.</desc>
    <defs></defs>
    <g id="Page-1" stroke="none" stroke-width="1" fill="none" fill-rule="evenodd">
        <g id="Artboard" transform="translate(-2950.000000, -1874.000000)" fill-rule="nonzero">
            <g id="Group-Copy-2" transform="translate(2950.000000, 1874.000000)">
                <path d="M2084.6924,0 L1196,888.692397 L1521.28277,2102.61791 L1957.90661,2218.47817 L1911.87041,2047.89094 L1646.03244,1977.81858 L1389.28253,1019.55043 L2347.65,1276.30034 L2604.44957,2234.66781 L2459.53734,2194.64065 L2505.6232,2365.17821 L2735.3076,2428 L3624,1539.25794 L3298.61791,325.23311 L2084.6924,0 Z M1428.81307,871.956475 L2130.28165,170.487902 L3088.69878,427.138492 L2387.13088,1128.65673 L1428.81307,871.956475 Z M3453.5121,1493.61903 L2751.89454,2195.0876 L2495.19429,1236.67047 L3196.76219,535.152237 L3453.5121,1493.61903 Z" id="Shape-Copy" fill="#235890"></path>
                <path d="M2102.71057,1521.14709 L1663.59468,1401.90497 L1709.68149,1572.49917 L1977.90869,1645.95152 L2234.71352,2604.3582 L1276.37611,2347.59778 L1019.62094,1389.24077 L1163.34424,1426.78639 L1117.25744,1256.24185 L888.710575,1196 L0,2084.67909 L325.289425,3298.70392 L1539.28943,3624 L2428,2735.27125 L2102.71057,1521.14709 Z M170.441726,2130.2702 L872.023972,1428.67361 L1128.8288,2387.08028 L427.246553,3088.62722 L170.441726,2130.2702 Z M1493.59992,3453.60445 L535.212845,3196.79437 L1236.79509,2495.14811 L2195.18216,2751.95819 L1493.59992,3453.60445 Z" id="Shape-Copy-2" fill="#BC3842"></path>
            </g>
        </g>
    </g>
</svg>