<?xml version="1.0" encoding="UTF-8"?>
<svg width="863px" height="135px" viewBox="0 0 863 135" version="1.1" xmlns="http://www.w3.org/2000/svg" xmlns:xlink="http://www.w3.org/1999/xlink">
    <!-- Generator: Sketch 47.1 (45422) - http://www.bohemiancoding.com/sketch -->
    <title>Group 2</title>
    <desc>Created with Sketch.</desc>
    <defs></defs>
    <g id="Page-1" stroke="none" stroke-width="1" fill="none" fill-rule="evenodd">
        <g id="Desktop-HD" transform="translate(-376.000000, -747.000000)" fill="#FFFFFF">
            <g id="Group-2" transform="translate(376.000000, 736.000000)">
                <path d="M32.0000001,11 C14.3523403,11 0,25.5765957 0,43.5 C0,61.4234043 14.3523403,76 32.0000001,76 C49.6476596,76 64,61.4234043 64,43.5 C64,25.5765957 49.6476596,11 32.0000001,11 Z M31.5000001,17 C45.5727273,17 57,28.4272727 57,42.5 C57,56.5727273 45.5727273,68 31.5000001,68 C17.4272727,68 6,56.5727273 6,42.5 C6,28.4272727 17.4272727,17 31.5000001,17 Z M102.770969,24.0011248 C102.444579,23.9952268 102.114661,24.012492 101.782928,24.0536714 C91.9061513,25.2890542 86.0240742,29.791231 82.5767783,33.9640795 C79.3209989,33.0581322 75.9558882,32.3994758 72.5633113,31.9876815 C70.7575849,31.7680579 69.1158021,33.0583466 68.9242857,34.8702413 C68.7054097,36.6821361 69.9913058,38.3295275 71.7970322,38.5216982 C75.5726419,38.9609451 79.2935327,39.7843195 82.877626,40.9098905 C84.2729601,41.3491377 85.7776254,40.8277458 86.5984101,39.6198159 C88.9513263,36.1332915 93.6296926,31.7132593 102.630965,30.5876884 C102.713044,30.5876884 102.822908,30.5602354 102.932346,30.7249531 C103.041784,30.8896708 102.959706,30.9992679 102.932346,31.0541738 C99.3756125,36.7369346 98.335525,42.6117593 99.895016,48.1023494 L99.895016,48.1849224 C99.9223755,49.1457757 100.360127,50.0517231 101.126193,50.655688 C108.349099,56.5031665 113.574975,63.942702 116.256205,72.1236813 C116.693957,73.4688759 117.9526,74.4024904 119.375294,74.4024904 L119.429799,74.4024904 L123.780065,74.4024904 C125.284837,74.4024904 126.488761,75.6105273 126.488761,77.1204396 L126.488761,91.945033 C126.488761,93.4549452 125.284837,94.6629821 123.780065,94.6629821 L119.621636,94.6629821 C118.171583,94.6629821 116.913046,95.5963825 116.475294,96.996483 C114.122378,104.738215 109.443692,111.848422 102.986852,117.613542 L102.932346,117.668234 L102.90456,117.69558 C102.658325,117.915203 102.412303,118.107588 102.166067,118.327212 C102.138708,118.354664 102.111135,118.381903 102.083775,118.381903 C95.0797456,124.750988 94.3688256,132.245858 94.3141066,134.387188 L94.3141066,134.469761 L94.3141066,139.328719 L74.5874869,139.328719 L74.5874869,134.689063 C74.5874869,133.755663 74.204454,132.877061 73.4931072,132.245643 C72.7817605,131.614226 71.8792174,131.312243 70.9489947,131.422055 C68.7602354,131.641679 66.5714761,131.779157 64.3827169,131.779157 C61.5920488,131.779157 58.7740212,131.586987 56.0380721,131.230098 C55.1078494,131.092834 54.1502673,131.394923 53.4389205,132.026341 C52.7275737,132.657759 52.3172881,133.563706 52.3172881,134.497107 L52.3172881,139.356065 L32.5906683,139.356065 L32.5906683,137.90138 L32.5906683,137.764115 C32.4265113,134.195231 31.3048789,125.080637 24.2187705,117.778153 C20.8535531,114.291628 17.8442231,109.707199 15.2724309,104.13425 C15.2450714,104.079344 15.2447508,104.051784 15.2173913,104.024331 C13.6852598,101.059413 12.5363748,97.9296691 11.7429496,94.7176739 C11.7429496,94.690221 11.7156971,94.6625539 11.7156971,94.6351009 L11.7156971,94.5804092 C10.9496313,91.4233198 10.5662778,88.1839787 10.5662778,84.9445305 C10.5662778,82.6659356 10.7582216,80.3870195 11.1412545,78.1633305 C11.4422089,76.3788887 10.2382846,74.6771269 8.43255818,74.3751445 C6.65419127,74.073162 4.95768888,75.2811989 4.65673448,77.0930937 C4.21898263,79.673671 4,82.3363931 4,84.9718764 C4,88.6780247 4.43807251,92.4118402 5.28621673,96.0356297 C5.28621673,96.0905356 5.31336227,96.1726803 5.34072176,96.2275862 C5.34072176,96.2275862 5.36797455,96.282385 5.36797455,96.3921968 C6.27083775,100.043439 7.6114528,103.640097 9.33510073,107.01681 C12.2078473,113.24863 15.6281043,118.409677 19.513152,122.417808 C24.9576907,128.045663 25.8875927,135.156084 26.0243902,138.038644 L26.0243902,139.438638 L26.0243902,139.713167 C26.0243902,139.850432 26.0248176,139.987804 26.052177,140.097616 C26.3804909,143.419423 29.1983048,145.972119 32.5361627,145.972119 L52.3445408,145.972119 C55.9559937,145.972119 58.8835659,143.035081 58.8835659,139.411292 L58.8835659,138.175909 C61.9204694,138.422986 64.9570528,138.450439 67.9939563,138.313174 L67.9939563,139.438638 C67.9939563,143.062427 70.9215285,146 74.5329813,146 L94.3413594,146 C97.9528122,146 100.880384,143.062427 100.880384,139.438638 L100.880384,134.579144 C100.907744,133.453573 101.345069,128.018317 106.461294,123.351316 L107.20032,122.692338 L107.254826,122.637111 C107.309545,122.582205 107.391943,122.527406 107.446662,122.4725 C114.095019,116.51521 119.074446,109.212939 121.947192,101.279036 L123.725559,101.279036 C128.841784,101.279036 133,97.1060806 133,91.9723788 L133,77.1477854 C133,71.9866307 128.841784,67.8137822 123.725559,67.8137822 L121.645811,67.8137822 C118.526829,59.6877088 113.219195,52.3026509 106.160446,46.3179076 L106.160446,46.2905618 C105.120785,42.6118664 105.886958,38.6589629 108.45875,34.5410203 C109.881444,32.2624254 109.88155,29.4345571 108.431497,27.1834151 C107.162701,25.2136659 105.0557,24.0424116 102.770969,24.0011248 Z" id="Shape-Copy-2" fill-rule="nonzero" transform="translate(66.500000, 78.500000) scale(-1, 1) translate(-66.500000, -78.500000) "></path>
                <text id="Future-of-Pensions" font-family="GTWalsheimBold, GT Walsheim" font-size="82" font-weight="bold" letter-spacing="-1.20117188">
                    <tspan x="158.484547" y="82">Future of Pensions</tspan>
                </text>
                <text id="a-blockchain-confere" font-family="CircularSpotifyTxT-Light, Circular Spotify Tx T" font-size="58" font-weight="300" letter-spacing="2.41666675">
                    <tspan x="158" y="135">a blockchain conferenc</tspan>
                    <tspan x="797.314668" y="135" letter-spacing="2.92013907">e</tspan>
                </text>
            </g>
        </g>
    </g>
</svg>