<?xml version="1.0" encoding="UTF-8"?>
<svg width="864px" height="135px" viewBox="0 0 864 135" version="1.1" xmlns="http://www.w3.org/2000/svg" xmlns:xlink="http://www.w3.org/1999/xlink">
    <!-- Generator: Sketch 47.1 (45422) - http://www.bohemiancoding.com/sketch -->
    <title>Group 2</title>
    <desc>Created with Sketch.</desc>
    <defs></defs>
    <g id="Page-1" stroke="none" stroke-width="1" fill="none" fill-rule="evenodd">
        <g id="Desktop-HD" transform="translate(-376.000000, -747.000000)" fill="#FFFFFF">
            <g id="Group-2" transform="translate(376.000000, 747.000000)">
                <path d="M32.0000001,0 C14.3523403,0 0,14.5765957 0,32.5 C0,50.4234043 14.3523403,65 32.0000001,65 C49.6476596,65 64,50.4234043 64,32.5 C64,14.5765957 49.6476596,0 32.0000001,0 Z M31.5000001,6 C45.5727273,6 57,17.4272727 57,31.5 C57,45.5727273 45.5727273,57 31.5000001,57 C17.4272727,57 6,45.5727273 6,31.5 C6,17.4272727 17.4272727,6 31.5000001,6 Z M102.770969,13.0011248 C102.444579,12.9952268 102.114661,13.012492 101.782928,13.0536714 C91.9061513,14.2890542 86.0240742,18.791231 82.5767783,22.9640795 C79.3209989,22.0581322 75.9558882,21.3994758 72.5633113,20.9876815 C70.7575849,20.7680579 69.1158021,22.0583466 68.9242857,23.8702413 C68.7054097,25.6821361 69.9913058,27.3295275 71.7970322,27.5216982 C75.5726419,27.9609451 79.2935327,28.7843195 82.877626,29.9098905 C84.2729601,30.3491377 85.7776254,29.8277458 86.5984101,28.6198159 C88.9513263,25.1332915 93.6296926,20.7132593 102.630965,19.5876884 C102.713044,19.5876884 102.822908,19.5602354 102.932346,19.7249531 C103.041784,19.8896708 102.959706,19.9992679 102.932346,20.0541738 C99.3756125,25.7369346 98.335525,31.6117593 99.895016,37.1023494 L99.895016,37.1849224 C99.9223755,38.1457757 100.360127,39.0517231 101.126193,39.655688 C108.349099,45.5031665 113.574975,52.942702 116.256205,61.1236813 C116.693957,62.4688759 117.9526,63.4024904 119.375294,63.4024904 L119.429799,63.4024904 L123.780065,63.4024904 C125.284837,63.4024904 126.488761,64.6105273 126.488761,66.1204396 L126.488761,80.945033 C126.488761,82.4549452 125.284837,83.6629821 123.780065,83.6629821 L119.621636,83.6629821 C118.171583,83.6629821 116.913046,84.5963825 116.475294,85.996483 C114.122378,93.7382151 109.443692,100.848422 102.986852,106.613542 L102.932346,106.668234 L102.90456,106.69558 C102.658325,106.915203 102.412303,107.107588 102.166067,107.327212 C102.138708,107.354664 102.111135,107.381903 102.083775,107.381903 C95.0797456,113.750988 94.3688256,121.245858 94.3141066,123.387188 L94.3141066,123.469761 L94.3141066,128.328719 L74.5874869,128.328719 L74.5874869,123.689063 C74.5874869,122.755663 74.204454,121.877061 73.4931072,121.245643 C72.7817605,120.614226 71.8792174,120.312243 70.9489947,120.422055 C68.7602354,120.641679 66.5714761,120.779157 64.3827169,120.779157 C61.5920488,120.779157 58.7740212,120.586987 56.0380721,120.230098 C55.1078494,120.092834 54.1502673,120.394923 53.4389205,121.026341 C52.7275737,121.657759 52.3172881,122.563706 52.3172881,123.497107 L52.3172881,128.356065 L32.5906683,128.356065 L32.5906683,126.90138 L32.5906683,126.764115 C32.4265113,123.195231 31.3048789,114.080637 24.2187705,106.778153 C20.8535531,103.291628 17.8442231,98.7071991 15.2724309,93.1342501 C15.2450714,93.0793442 15.2447508,93.0517842 15.2173913,93.0243313 C13.6852598,90.0594126 12.5363748,86.9296691 11.7429496,83.7176739 C11.7429496,83.690221 11.7156971,83.6625539 11.7156971,83.6351009 L11.7156971,83.5804092 C10.9496313,80.4233198 10.5662778,77.1839787 10.5662778,73.9445305 C10.5662778,71.6659356 10.7582216,69.3870195 11.1412545,67.1633305 C11.4422089,65.3788887 10.2382846,63.6771269 8.43255818,63.3751445 C6.65419127,63.073162 4.95768888,64.2811989 4.65673448,66.0930937 C4.21898263,68.673671 4,71.3363931 4,73.9718764 C4,77.6780247 4.43807251,81.4118402 5.28621673,85.0356297 C5.28621673,85.0905356 5.31336227,85.1726803 5.34072176,85.2275862 C5.34072176,85.2275862 5.36797455,85.282385 5.36797455,85.3921968 C6.27083775,89.0434393 7.6114528,92.640097 9.33510073,96.01681 C12.2078473,102.24863 15.6281043,107.409677 19.513152,111.417808 C24.9576907,117.045663 25.8875927,124.156084 26.0243902,127.038644 L26.0243902,128.438638 L26.0243902,128.713167 C26.0243902,128.850432 26.0248176,128.987804 26.052177,129.097616 C26.3804909,132.419423 29.1983048,134.972119 32.5361627,134.972119 L52.3445408,134.972119 C55.9559937,134.972119 58.8835659,132.035081 58.8835659,128.411292 L58.8835659,127.175909 C61.9204694,127.422986 64.9570528,127.450439 67.9939563,127.313174 L67.9939563,128.438638 C67.9939563,132.062427 70.9215285,135 74.5329813,135 L94.3413594,135 C97.9528122,135 100.880384,132.062427 100.880384,128.438638 L100.880384,123.579144 C100.907744,122.453573 101.345069,117.018317 106.461294,112.351316 L107.20032,111.692338 L107.254826,111.637111 C107.309545,111.582205 107.391943,111.527406 107.446662,111.4725 C114.095019,105.51521 119.074446,98.212939 121.947192,90.2790362 L123.725559,90.2790362 C128.841784,90.2790362 133,86.1060806 133,80.9723788 L133,66.1477854 C133,60.9866307 128.841784,56.8137822 123.725559,56.8137822 L121.645811,56.8137822 C118.526829,48.6877088 113.219195,41.3026509 106.160446,35.3179076 L106.160446,35.2905618 C105.120785,31.6118664 105.886958,27.6589629 108.45875,23.5410203 C109.881444,21.2624254 109.88155,18.4345571 108.431497,16.1834151 C107.162701,14.2136659 105.0557,13.0424116 102.770969,13.0011248 Z" id="Shape-Copy-2" fill-rule="nonzero" transform="translate(66.500000, 67.500000) scale(-1, 1) translate(-66.500000, -67.500000) "></path>
                <path d="M177.262547,24.752 L177.262547,40.25 L198.992547,40.25 L198.992547,51.156 L177.262547,51.156 L177.262547,71 L163.978547,71 L163.978547,13.6 L198.992547,13.6 L198.992547,24.752 L177.262547,24.752 Z M246.827375,31.476 L246.827375,71 L234.281375,71 L234.281375,65.342 C233.188036,67.4193437 231.534386,69.0456608 229.320375,70.221 C227.106364,71.3963392 224.441391,71.984 221.325375,71.984 C218.756029,71.984 216.542051,71.5876706 214.683375,70.795 C212.824699,70.0023294 211.348714,68.8953404 210.255375,67.474 C208.998035,65.9433257 208.178044,64.1803433 207.795375,62.185 C207.412706,60.1896567 207.221375,57.7706809 207.221375,54.928 L207.221375,31.476 L219.685375,31.476 L219.685375,51.73 C219.685375,54.5726809 220.191037,56.8823245 221.202375,58.659 C222.213713,60.4356756 224.031362,61.324 226.655375,61.324 C229.279388,61.324 231.206369,60.422009 232.436375,58.618 C233.666381,56.813991 234.281375,54.3813486 234.281375,51.32 L234.281375,31.476 L246.827375,31.476 Z M280.968203,71 C280.038865,71.1640008 278.87721,71.3143327 277.483203,71.451 C276.089196,71.5876674 274.462879,71.656 272.604203,71.656 C271.128196,71.656 269.570211,71.5466678 267.930203,71.328 C266.290195,71.1093322 264.77321,70.5490045 263.379203,69.647 C261.985196,68.7449955 260.837208,67.3510094 259.935203,65.465 C259.033199,63.5789906 258.582203,60.9960164 258.582203,57.716 L258.582203,40.824 L252.350203,40.824 L252.350203,31.476 L258.582203,31.476 L258.582203,19.75 L271.046203,19.75 L271.046203,31.476 L280.066203,31.476 L280.066203,40.824 L271.046203,40.824 L271.046203,54.928 C271.046203,56.4040074 271.182868,57.579329 271.456203,58.454 C271.729538,59.328671 272.112201,59.998331 272.604203,60.463 C273.096206,60.927669 273.6702,61.2419992 274.326203,61.406 C274.982206,61.5700008 275.692866,61.652 276.458203,61.652 C277.22354,61.652 278.016199,61.6383335 278.836203,61.611 C279.656207,61.5836665 280.366867,61.5153339 280.968203,61.406 L280.968203,71 Z M325.605031,31.476 L325.605031,71 L313.059031,71 L313.059031,65.342 C311.965692,67.4193437 310.312042,69.0456608 308.098031,70.221 C305.88402,71.3963392 303.219047,71.984 300.103031,71.984 C297.533685,71.984 295.319707,71.5876706 293.461031,70.795 C291.602355,70.0023294 290.12637,68.8953404 289.033031,67.474 C287.775692,65.9433257 286.9557,64.1803433 286.573031,62.185 C286.190363,60.1896567 285.999031,57.7706809 285.999031,54.928 L285.999031,31.476 L298.463031,31.476 L298.463031,51.73 C298.463031,54.5726809 298.968693,56.8823245 299.980031,58.659 C300.99137,60.4356756 302.809018,61.324 305.433031,61.324 C308.057044,61.324 309.984025,60.422009 311.214031,58.618 C312.444037,56.813991 313.059031,54.3813486 313.059031,51.32 L313.059031,31.476 L325.605031,31.476 Z M363.435859,42.874 C362.561188,42.6553322 361.823196,42.5050004 361.221859,42.423 C360.620523,42.3409996 359.88253,42.3 359.007859,42.3 C355.563842,42.3 352.803203,43.3113232 350.725859,45.334 C348.648516,47.3566768 347.609859,50.7733093 347.609859,55.584 L347.609859,71 L335.063859,71 L335.063859,31.476 L347.609859,31.476 L347.609859,37.872 C348.539197,36.013324 350.083515,34.3733404 352.242859,32.952 C354.402204,31.5306596 356.875845,30.82 359.663859,30.82 C361.139867,30.82 362.397188,31.0386645 363.435859,31.476 L363.435859,42.874 Z M377.158688,54.272 C377.213354,55.4746727 377.391019,56.6089947 377.691688,57.675 C377.992356,58.7410053 378.484351,59.6703294 379.167688,60.463 C379.851024,61.2556706 380.739349,61.884331 381.832688,62.349 C382.926026,62.813669 384.292679,63.046 385.932688,63.046 C388.119365,63.046 389.773015,62.608671 390.893688,61.734 C392.01436,60.859329 392.793352,59.7933396 393.230688,58.536 L405.530687,58.536 C405.257353,60.394676 404.615026,62.1439918 403.603687,63.784 C402.592349,65.4240082 401.253029,66.8589939 399.585688,68.089 C397.918346,69.3190062 395.950366,70.2893298 393.681688,71 C391.413009,71.7106702 388.857368,72.066 386.014688,72.066 C382.57067,72.066 379.523034,71.5603384 376.871688,70.549 C374.220341,69.5376616 371.992697,68.102676 370.188688,66.244 C368.384678,64.385324 367.018025,62.1850127 366.088687,59.643 C365.15935,57.1009873 364.694687,54.2993486 364.694687,51.238 C364.694687,48.3406522 365.145683,45.6346792 366.047688,43.12 C366.949692,40.6053208 368.289012,38.4050094 370.065687,36.519 C371.842363,34.6329906 374.029008,33.1433388 376.625688,32.05 C379.222367,30.9566612 382.24267,30.41 385.686688,30.41 C388.802703,30.41 391.604342,30.9019951 394.091688,31.886 C396.579033,32.8700049 398.711012,34.1819918 400.487687,35.822 C402.264363,37.4620082 403.631016,39.3753224 404.587688,41.562 C405.544359,43.7486776 406.022687,46.0446546 406.022687,48.45 C406.022687,49.2700041 406.009021,50.144662 405.981688,51.074 C405.954354,52.003338 405.831355,53.0693273 405.612687,54.272 L377.158688,54.272 Z M385.604688,38.774 C383.144675,38.774 381.122029,39.4846596 379.536688,40.906 C377.951346,42.3273404 377.158688,44.3773199 377.158688,47.056 L393.722688,47.056 C393.722688,44.4866538 392.971028,42.4640074 391.467688,40.988 C389.964347,39.5119926 388.010033,38.774 385.604688,38.774 Z M451.262344,72.066 C447.872993,72.066 444.825357,71.5056723 442.119344,70.385 C439.41333,69.2643277 437.117353,67.7610094 435.231344,65.875 C433.345334,63.9889906 431.896682,61.7886792 430.885344,59.274 C429.874005,56.7593208 429.368344,54.0806809 429.368344,51.238 C429.368344,48.3953191 429.874005,45.7166792 430.885344,43.202 C431.896682,40.6873208 433.345334,38.4870094 435.231344,36.601 C437.117353,34.7149906 439.41333,33.2116723 442.119344,32.091 C444.825357,30.9703277 447.872993,30.41 451.262344,30.41 C454.706361,30.41 457.78133,30.9703277 460.487344,32.091 C463.193357,33.2116723 465.489334,34.7149906 467.375344,36.601 C469.261353,38.4870094 470.710005,40.6873208 471.721344,43.202 C472.732682,45.7166792 473.238344,48.3953191 473.238344,51.238 C473.238344,54.0806809 472.732682,56.7593208 471.721344,59.274 C470.710005,61.7886792 469.261353,63.9889906 467.375344,65.875 C465.489334,67.7610094 463.193357,69.2643277 460.487344,70.385 C457.78133,71.5056723 454.706361,72.066 451.262344,72.066 Z M451.262344,61.324 C452.683684,61.324 453.982005,61.0643359 455.157344,60.545 C456.332683,60.0256641 457.33034,59.301338 458.150344,58.372 C458.970348,57.442662 459.612675,56.3766727 460.077344,55.174 C460.542013,53.9713273 460.774344,52.6593404 460.774344,51.238 C460.774344,49.8713265 460.542013,48.5730062 460.077344,47.343 C459.612675,46.1129939 458.970348,45.0470045 458.150344,44.145 C457.33034,43.2429955 456.332683,42.5186694 455.157344,41.972 C453.982005,41.4253306 452.683684,41.152 451.262344,41.152 C449.841003,41.152 448.556349,41.4253306 447.408344,41.972 C446.260338,42.5186694 445.276348,43.2429955 444.456344,44.145 C443.63634,45.0470045 443.007679,46.1129939 442.570344,47.343 C442.133008,48.5730062 441.914344,49.8713265 441.914344,51.238 C441.914344,52.6593404 442.133008,53.9713273 442.570344,55.174 C443.007679,56.3766727 443.63634,57.442662 444.456344,58.372 C445.276348,59.301338 446.260338,60.0256641 447.408344,60.545 C448.556349,61.0643359 449.841003,61.324 451.262344,61.324 Z M504.017172,22.784 C503.361169,22.6199992 502.746175,22.4970004 502.172172,22.415 C501.598169,22.3329996 500.928509,22.292 500.163172,22.292 C499.452502,22.292 498.769175,22.3329996 498.113172,22.415 C497.457169,22.4970004 496.883174,22.7156649 496.391172,23.071 C495.899169,23.4263351 495.50284,23.9319967 495.202172,24.588 C494.901504,25.2440033 494.751172,26.1459943 494.751172,27.294 L494.751172,31.476 L504.017172,31.476 L504.017172,40.824 L494.833172,40.824 L494.833172,71 L482.287172,71 L482.287172,40.824 L475.153172,40.824 L475.153172,31.476 L482.287172,31.476 L482.287172,28.032 C482.287172,24.423982 482.7655,21.6086768 483.722172,19.586 C484.678843,17.5633232 485.895164,16.0326719 487.371172,14.994 C488.847179,13.9553281 490.45983,13.3130012 492.209172,13.067 C493.958514,12.8209988 495.625831,12.698 497.211172,12.698 C498.687179,12.698 499.999166,12.8073322 501.147172,13.026 C502.295178,13.2446678 503.251835,13.4906653 504.017172,13.764 L504.017172,22.784 Z M528.018828,13.6 L552.044828,13.6 C555.215511,13.6 558.085482,14.1603277 560.654828,15.281 C563.224174,16.4016723 565.424486,17.9049906 567.255828,19.791 C569.087171,21.6770094 570.494823,23.8773208 571.478828,26.392 C572.462833,28.9066792 572.954828,31.5579861 572.954828,34.346 C572.954828,37.1340139 572.462833,39.7853208 571.478828,42.3 C570.494823,44.8146792 569.087171,47.0149906 567.255828,48.901 C565.424486,50.7870094 563.224174,52.2903277 560.654828,53.411 C558.085482,54.5316723 555.215511,55.092 552.044828,55.092 L541.302828,55.092 L541.302828,71 L528.018828,71 L528.018828,13.6 Z M550.404828,44.268 C551.771502,44.268 553.028822,43.9946694 554.176828,43.448 C555.324834,42.9013306 556.295157,42.1770045 557.087828,41.275 C557.880499,40.3729955 558.495493,39.3206727 558.932828,38.118 C559.370164,36.9153273 559.588828,35.6580066 559.588828,34.346 C559.588828,33.0339934 559.370164,31.7766727 558.932828,30.574 C558.495493,29.3713273 557.880499,28.3190045 557.087828,27.417 C556.295157,26.5149955 555.324834,25.7906694 554.176828,25.244 C553.028822,24.6973306 551.771502,24.424 550.404828,24.424 L541.302828,24.424 L541.302828,44.268 L550.404828,44.268 Z M586.349656,54.272 C586.404323,55.4746727 586.581988,56.6089947 586.882656,57.675 C587.183324,58.7410053 587.67532,59.6703294 588.358656,60.463 C589.041993,61.2556706 589.930317,61.884331 591.023656,62.349 C592.116995,62.813669 593.483648,63.046 595.123656,63.046 C597.310334,63.046 598.963984,62.608671 600.084656,61.734 C601.205329,60.859329 601.984321,59.7933396 602.421656,58.536 L614.721656,58.536 C614.448322,60.394676 613.805995,62.1439918 612.794656,63.784 C611.783318,65.4240082 610.443998,66.8589939 608.776656,68.089 C607.109315,69.3190062 605.141334,70.2893298 602.872656,71 C600.603978,71.7106702 598.048337,72.066 595.205656,72.066 C591.761639,72.066 588.714003,71.5603384 586.062656,70.549 C583.41131,69.5376616 581.183665,68.102676 579.379656,66.244 C577.575647,64.385324 576.208994,62.1850127 575.279656,59.643 C574.350318,57.1009873 573.885656,54.2993486 573.885656,51.238 C573.885656,48.3406522 574.336652,45.6346792 575.238656,43.12 C576.140661,40.6053208 577.479981,38.4050094 579.256656,36.519 C581.033332,34.6329906 583.219977,33.1433388 585.816656,32.05 C588.413336,30.9566612 591.433639,30.41 594.877656,30.41 C597.993672,30.41 600.79531,30.9019951 603.282656,31.886 C605.770002,32.8700049 607.901981,34.1819918 609.678656,35.822 C611.455332,37.4620082 612.821985,39.3753224 613.778656,41.562 C614.735328,43.7486776 615.213656,46.0446546 615.213656,48.45 C615.213656,49.2700041 615.19999,50.144662 615.172656,51.074 C615.145323,52.003338 615.022324,53.0693273 614.803656,54.272 L586.349656,54.272 Z M594.795656,38.774 C592.335644,38.774 590.312998,39.4846596 588.727656,40.906 C587.142315,42.3273404 586.349656,44.3773199 586.349656,47.056 L602.913656,47.056 C602.913656,44.4866538 602.161997,42.4640074 600.658656,40.988 C599.155315,39.5119926 597.201002,38.774 594.795656,38.774 Z M622.540484,31.476 L635.086484,31.476 L635.086484,37.216 C636.179823,35.0839893 637.833473,33.4303392 640.047484,32.255 C642.261495,31.0796608 644.926469,30.492 648.042484,30.492 C650.611831,30.492 652.825808,30.8883294 654.684484,31.681 C656.54316,32.4736706 658.019146,33.5806596 659.112484,35.002 C660.369824,36.5326743 661.203482,38.2956567 661.613484,40.291 C662.023486,42.2863433 662.228484,44.7053191 662.228484,47.548 L662.228484,71 L649.682484,71 L649.682484,50.746 C649.682484,47.9033191 649.176823,45.5936756 648.165484,43.817 C647.154146,42.0403245 645.336497,41.152 642.712484,41.152 C640.143138,41.152 638.229824,42.053991 636.972484,43.858 C635.715145,45.662009 635.086484,48.0946514 635.086484,51.156 L635.086484,71 L622.540484,71 L622.540484,31.476 Z M691.859312,47.712 C693.608655,48.2040025 695.248638,48.7369971 696.779312,49.311 C698.309987,49.8850029 699.649307,50.5956624 700.797312,51.443 C701.945318,52.2903376 702.860976,53.3426604 703.544312,54.6 C704.227649,55.8573396 704.569312,57.4426571 704.569312,59.356 C704.569312,61.7066784 704.10465,63.6883253 703.175313,65.301 C702.245975,66.9136747 700.961321,68.2256616 699.321312,69.237 C697.681304,70.2483384 695.781657,70.9726645 693.622313,71.41 C691.462968,71.8473355 689.153325,72.066 686.693312,72.066 C681.062618,72.066 676.620995,70.8360123 673.368313,68.376 C670.11563,65.9159877 668.489312,62.390023 668.489312,57.798 L680.789312,57.798 C680.789312,59.8753437 681.376973,61.3649955 682.552312,62.267 C683.727652,63.1690045 685.244637,63.62 687.103313,63.62 C688.633987,63.62 689.877641,63.3330029 690.834313,62.759 C691.790984,62.1849971 692.269312,61.2420066 692.269312,59.93 C692.269312,59.1646628 692.064315,58.549669 691.654312,58.085 C691.24431,57.620331 690.61565,57.1830021 689.768312,56.773 C688.920975,56.362998 687.827653,55.9530021 686.488313,55.543 C685.148972,55.132998 683.549988,54.6273363 681.691312,54.026 C680.051304,53.5339975 678.49332,53.0010029 677.017313,52.427 C675.541305,51.8529971 674.242985,51.1560041 673.122313,50.336 C672.00164,49.5159959 671.113316,48.4773396 670.457312,47.22 C669.801309,45.9626604 669.473313,44.3773429 669.473312,42.464 C669.473313,38.3639795 671.044963,35.3300098 674.188312,33.362 C677.331662,31.3939902 681.581952,30.41 686.939312,30.41 C689.781993,30.41 692.282968,30.7516633 694.442312,31.435 C696.601657,32.1183368 698.378306,33.0613273 699.772312,34.264 C701.166319,35.4666727 702.218642,36.8879918 702.929312,38.528 C703.639983,40.1680082 703.995312,41.917324 703.995312,43.776 L691.613313,43.776 C691.613313,42.1359918 691.18965,40.8650045 690.342312,39.963 C689.494975,39.0609955 688.196655,38.61 686.447312,38.61 C685.189973,38.61 684.09665,38.8969971 683.167312,39.471 C682.237975,40.0450029 681.773312,40.9333273 681.773312,42.136 C681.773312,42.8466702 681.991977,43.434331 682.429312,43.899 C682.866648,44.363669 683.508975,44.7873314 684.356312,45.17 C685.20365,45.5526686 686.255973,45.9353314 687.513312,46.318 C688.770652,46.7006686 690.219304,47.1653306 691.859312,47.712 Z M709.928141,18.356 C709.928141,16.1146555 710.693466,14.2286743 712.224141,12.698 C713.754815,11.1673257 715.668129,10.402 717.964141,10.402 C719.112146,10.402 720.178136,10.606998 721.162141,11.017 C722.146146,11.4270021 723.007137,11.9873298 723.745141,12.698 C724.483144,13.4086702 725.057139,14.2559951 725.467141,15.24 C725.877143,16.2240049 726.082141,17.2626612 726.082141,18.356 C726.082141,19.4493388 725.877143,20.4743286 725.467141,21.431 C725.057139,22.3876715 724.483144,23.2349963 723.745141,23.973 C723.007137,24.7110037 722.146146,25.284998 721.162141,25.695 C720.178136,26.1050021 719.112146,26.31 717.964141,26.31 C716.816135,26.31 715.763812,26.1050021 714.807141,25.695 C713.850469,25.284998 713.003144,24.7110037 712.265141,23.973 C711.527137,23.2349963 710.953143,22.3876715 710.543141,21.431 C710.133139,20.4743286 709.928141,19.4493388 709.928141,18.356 Z M711.732141,31.476 L724.278141,31.476 L724.278141,71 L711.732141,71 L711.732141,31.476 Z M752.924969,72.066 C749.535618,72.066 746.487982,71.5056723 743.781969,70.385 C741.075955,69.2643277 738.779978,67.7610094 736.893969,65.875 C735.007959,63.9889906 733.559307,61.7886792 732.547969,59.274 C731.53663,56.7593208 731.030969,54.0806809 731.030969,51.238 C731.030969,48.3953191 731.53663,45.7166792 732.547969,43.202 C733.559307,40.6873208 735.007959,38.4870094 736.893969,36.601 C738.779978,34.7149906 741.075955,33.2116723 743.781969,32.091 C746.487982,30.9703277 749.535618,30.41 752.924969,30.41 C756.368986,30.41 759.443955,30.9703277 762.149969,32.091 C764.855982,33.2116723 767.151959,34.7149906 769.037969,36.601 C770.923978,38.4870094 772.37263,40.6873208 773.383969,43.202 C774.395307,45.7166792 774.900969,48.3953191 774.900969,51.238 C774.900969,54.0806809 774.395307,56.7593208 773.383969,59.274 C772.37263,61.7886792 770.923978,63.9889906 769.037969,65.875 C767.151959,67.7610094 764.855982,69.2643277 762.149969,70.385 C759.443955,71.5056723 756.368986,72.066 752.924969,72.066 Z M752.924969,61.324 C754.346309,61.324 755.64463,61.0643359 756.819969,60.545 C757.995308,60.0256641 758.992965,59.301338 759.812969,58.372 C760.632973,57.442662 761.2753,56.3766727 761.739969,55.174 C762.204638,53.9713273 762.436969,52.6593404 762.436969,51.238 C762.436969,49.8713265 762.204638,48.5730062 761.739969,47.343 C761.2753,46.1129939 760.632973,45.0470045 759.812969,44.145 C758.992965,43.2429955 757.995308,42.5186694 756.819969,41.972 C755.64463,41.4253306 754.346309,41.152 752.924969,41.152 C751.503628,41.152 750.218974,41.4253306 749.070969,41.972 C747.922963,42.5186694 746.938973,43.2429955 746.118969,44.145 C745.298965,45.0470045 744.670304,46.1129939 744.232969,47.343 C743.795633,48.5730062 743.576969,49.8713265 743.576969,51.238 C743.576969,52.6593404 743.795633,53.9713273 744.232969,55.174 C744.670304,56.3766727 745.298965,57.442662 746.118969,58.372 C746.938973,59.301338 747.922963,60.0256641 749.070969,60.545 C750.218974,61.0643359 751.503628,61.324 752.924969,61.324 Z M781.653797,31.476 L794.199797,31.476 L794.199797,37.216 C795.293136,35.0839893 796.946786,33.4303392 799.160797,32.255 C801.374808,31.0796608 804.039781,30.492 807.155797,30.492 C809.725143,30.492 811.939121,30.8883294 813.797797,31.681 C815.656473,32.4736706 817.132458,33.5806596 818.225797,35.002 C819.483136,36.5326743 820.316795,38.2956567 820.726797,40.291 C821.136799,42.2863433 821.341797,44.7053191 821.341797,47.548 L821.341797,71 L808.795797,71 L808.795797,50.746 C808.795797,47.9033191 808.290135,45.5936756 807.278797,43.817 C806.267458,42.0403245 804.44981,41.152 801.825797,41.152 C799.256451,41.152 797.343136,42.053991 796.085797,43.858 C794.828457,45.662009 794.199797,48.0946514 794.199797,51.156 L794.199797,71 L781.653797,71 L781.653797,31.476 Z M850.972625,47.712 C852.721967,48.2040025 854.361951,48.7369971 855.892625,49.311 C857.423299,49.8850029 858.762619,50.5956624 859.910625,51.443 C861.058631,52.2903376 861.974288,53.3426604 862.657625,54.6 C863.340962,55.8573396 863.682625,57.4426571 863.682625,59.356 C863.682625,61.7066784 863.217963,63.6883253 862.288625,65.301 C861.359287,66.9136747 860.074633,68.2256616 858.434625,69.237 C856.794617,70.2483384 854.894969,70.9726645 852.735625,71.41 C850.576281,71.8473355 848.266637,72.066 845.806625,72.066 C840.17593,72.066 835.734308,70.8360123 832.481625,68.376 C829.228942,65.9159877 827.602625,62.390023 827.602625,57.798 L839.902625,57.798 C839.902625,59.8753437 840.490286,61.3649955 841.665625,62.267 C842.840964,63.1690045 844.357949,63.62 846.216625,63.62 C847.747299,63.62 848.990954,63.3330029 849.947625,62.759 C850.904296,62.1849971 851.382625,61.2420066 851.382625,59.93 C851.382625,59.1646628 851.177627,58.549669 850.767625,58.085 C850.357623,57.620331 849.728963,57.1830021 848.881625,56.773 C848.034287,56.362998 846.940965,55.9530021 845.601625,55.543 C844.262285,55.132998 842.663301,54.6273363 840.804625,54.026 C839.164617,53.5339975 837.606632,53.0010029 836.130625,52.427 C834.654618,51.8529971 833.356297,51.1560041 832.235625,50.336 C831.114953,49.5159959 830.226628,48.4773396 829.570625,47.22 C828.914622,45.9626604 828.586625,44.3773429 828.586625,42.464 C828.586625,38.3639795 830.158276,35.3300098 833.301625,33.362 C836.444974,31.3939902 840.695265,30.41 846.052625,30.41 C848.895306,30.41 851.396281,30.7516633 853.555625,31.435 C855.714969,32.1183368 857.491618,33.0613273 858.885625,34.264 C860.279632,35.4666727 861.331955,36.8879918 862.042625,38.528 C862.753295,40.1680082 863.108625,41.917324 863.108625,43.776 L850.726625,43.776 C850.726625,42.1359918 850.302963,40.8650045 849.455625,39.963 C848.608287,39.0609955 847.309967,38.61 845.560625,38.61 C844.303285,38.61 843.209963,38.8969971 842.280625,39.471 C841.351287,40.0450029 840.886625,40.9333273 840.886625,42.136 C840.886625,42.8466702 841.105289,43.434331 841.542625,43.899 C841.979961,44.363669 842.622287,44.7873314 843.469625,45.17 C844.316963,45.5526686 845.369285,45.9353314 846.626625,46.318 C847.883965,46.7006686 849.332617,47.1653306 850.972625,47.712 Z" id="Future-of-Pensions"></path>
                <path d="M169.658,124.696 C168.188659,124.696 166.893339,124.473669 165.772,124.029 C164.650661,123.584331 163.713004,123.004337 162.959,122.289 C162.204996,121.573663 161.625002,120.742338 161.219,119.795 C160.812998,118.847662 160.61,117.871338 160.61,116.866 C160.61,114.507322 161.354326,112.65134 162.843,111.298 C164.331674,109.94466 166.351987,109.074669 168.904,108.688 L176.27,107.586 C177.468673,107.392666 178.251665,107.064002 178.619,106.6 C178.986335,106.135998 179.17,105.575337 179.17,104.918 C179.17,103.061991 178.580339,101.554006 177.401,100.394 C176.221661,99.2339942 174.491345,98.654 172.21,98.654 C170.005989,98.654 168.217674,99.2243276 166.845,100.365 C165.472326,101.505672 164.670001,103.081323 164.438,105.092 L161.19,104.396 C161.344667,103.081327 161.73133,101.882672 162.35,100.8 C162.96867,99.7173279 163.751662,98.7990038 164.699,98.045 C165.646338,97.2909962 166.757994,96.7013355 168.034,96.276 C169.310006,95.8506645 170.682659,95.638 172.152,95.638 C173.930676,95.638 175.486993,95.8893308 176.821,96.392 C178.155007,96.8946692 179.247329,97.5809956 180.098,98.451 C180.948671,99.3210043 181.586665,100.345661 182.012,101.525 C182.437335,102.704339 182.65,103.951327 182.65,105.266 L182.65,119.244 C182.65,120.365339 182.688666,121.29333 182.766,122.028 C182.843334,122.76267 182.939999,123.419997 183.056,124 L179.634,124 C179.556666,123.690665 179.479334,123.101004 179.402,122.231 C179.324666,121.360996 179.286,120.365339 179.286,119.244 C178.976665,119.901337 178.532003,120.548997 177.952,121.187 C177.371997,121.825003 176.676004,122.404997 175.864,122.927 C175.051996,123.449003 174.133672,123.874332 173.109,124.203 C172.084328,124.531668 170.934006,124.696 169.658,124.696 Z M170.064,121.738 C171.378673,121.738 172.596661,121.525335 173.718,121.1 C174.839339,120.674665 175.805996,120.075337 176.618,119.302 C177.430004,118.528663 178.058331,117.581339 178.503,116.46 C178.947669,115.338661 179.17,114.082007 179.17,112.69 L179.17,109.558 C179.092666,109.635334 178.870335,109.751333 178.503,109.906 C178.135665,110.060667 177.681336,110.176666 177.14,110.254 L169.426,111.414 C167.801992,111.646001 166.516338,112.206662 165.569,113.096 C164.621662,113.985338 164.148,115.183992 164.148,116.692 C164.148,117.968006 164.650662,119.127995 165.656,120.172 C166.661338,121.216005 168.130657,121.738 170.064,121.738 Z M211.495333,124 L211.495333,82.124 L214.975333,82.124 L214.975333,101.67 C215.284668,100.973997 215.719664,100.268337 216.280333,99.553 C216.841003,98.8376631 217.536996,98.1900029 218.368333,97.61 C219.199671,97.0299971 220.166328,96.5466686 221.268333,96.16 C222.370339,95.7733314 223.617327,95.58 225.009333,95.58 C226.942676,95.58 228.682659,95.9569962 230.229333,96.711 C231.776008,97.4650038 233.090661,98.4896602 234.173333,99.785 C235.256006,101.08034 236.087331,102.617324 236.667333,104.396 C237.247336,106.174676 237.537333,108.088656 237.537333,110.138 C237.537333,112.187344 237.23767,114.101324 236.638333,115.88 C236.038997,117.658676 235.188339,119.205327 234.086333,120.52 C232.984328,121.834673 231.660008,122.868996 230.113333,123.623 C228.566659,124.377004 226.826676,124.754 224.893333,124.754 C223.539993,124.754 222.331672,124.570335 221.268333,124.203 C220.204995,123.835665 219.267338,123.362003 218.455333,122.782 C217.643329,122.201997 216.93767,121.54467 216.338333,120.81 C215.738997,120.07533 215.265335,119.34067 214.917333,118.606 L214.917333,124 L211.495333,124 Z M224.487333,121.622 C225.918007,121.622 227.213328,121.341669 228.373333,120.781 C229.533339,120.220331 230.538663,119.427672 231.389333,118.403 C232.240004,117.378328 232.897331,116.170007 233.361333,114.778 C233.825336,113.385993 234.057333,111.839342 234.057333,110.138 C234.057333,108.475325 233.825336,106.948007 233.361333,105.556 C232.897331,104.163993 232.240004,102.955672 231.389333,101.931 C230.538663,100.906328 229.533339,100.113669 228.373333,99.553 C227.213328,98.9923305 225.918007,98.712 224.487333,98.712 C223.05666,98.712 221.751673,98.9923305 220.572333,99.553 C219.392994,100.113669 218.387671,100.906328 217.556333,101.931 C216.724996,102.955672 216.077336,104.163993 215.613333,105.556 C215.149331,106.948007 214.917333,108.475325 214.917333,110.138 C214.917333,111.839342 215.149331,113.385993 215.613333,114.778 C216.077336,116.170007 216.724996,117.378328 217.556333,118.403 C218.387671,119.427672 219.392994,120.220331 220.572333,120.781 C221.751673,121.341669 223.05666,121.622 224.487333,121.622 Z M247.378,124 L247.378,82.124 L250.858,82.124 L250.858,124 L247.378,124 Z M274.386667,124.754 C272.453324,124.754 270.655342,124.396337 268.992667,123.681 C267.329992,122.965663 265.880007,121.970006 264.642667,120.694 C263.405327,119.417994 262.429004,117.890676 261.713667,116.112 C260.99833,114.333324 260.640667,112.361344 260.640667,110.196 C260.640667,108.030656 260.988664,106.049009 261.684667,104.251 C262.38067,102.452991 263.347327,100.916006 264.584667,99.64 C265.822007,98.3639936 267.281659,97.3780035 268.963667,96.682 C270.645675,95.9859965 272.453324,95.638 274.386667,95.638 C276.32001,95.638 278.117992,95.9859965 279.780667,96.682 C281.443342,97.3780035 282.893327,98.3639936 284.130667,99.64 C285.368007,100.916006 286.34433,102.452991 287.059667,104.251 C287.775004,106.049009 288.132667,108.030656 288.132667,110.196 C288.132667,112.361344 287.775004,114.333324 287.059667,116.112 C286.34433,117.890676 285.368007,119.417994 284.130667,120.694 C282.893327,121.970006 281.443342,122.965663 279.780667,123.681 C278.117992,124.396337 276.32001,124.754 274.386667,124.754 Z M264.178667,110.196 C264.178667,112.013342 264.458998,113.62766 265.019667,115.039 C265.580336,116.45034 266.324662,117.639329 267.252667,118.606 C268.180672,119.572671 269.263327,120.316997 270.500667,120.839 C271.738007,121.361003 273.033327,121.622 274.386667,121.622 C275.740007,121.622 277.035327,121.361003 278.272667,120.839 C279.510007,120.316997 280.592662,119.572671 281.520667,118.606 C282.448672,117.639329 283.192998,116.45034 283.753667,115.039 C284.314336,113.62766 284.594667,112.013342 284.594667,110.196 C284.594667,108.378658 284.314336,106.76434 283.753667,105.353 C283.192998,103.94166 282.448672,102.743005 281.520667,101.757 C280.592662,100.770995 279.510007,100.026669 278.272667,99.524 C277.035327,99.0213308 275.740007,98.77 274.386667,98.77 C273.033327,98.77 271.738007,99.0213308 270.500667,99.524 C269.263327,100.026669 268.180672,100.770995 267.252667,101.757 C266.324662,102.743005 265.580336,103.94166 265.019667,105.353 C264.458998,106.76434 264.178667,108.378658 264.178667,110.196 Z M309.573334,98.712 C308.181327,98.712 306.87634,98.9729974 305.658334,99.495 C304.440328,100.017003 303.377005,100.770995 302.468334,101.757 C301.559663,102.743005 300.83467,103.951326 300.293334,105.382 C299.751998,106.812674 299.481334,108.417324 299.481334,110.196 C299.481334,111.936009 299.742331,113.51166 300.264334,114.923 C300.786336,116.33434 301.511329,117.532995 302.439334,118.519 C303.367338,119.505005 304.440328,120.268664 305.658334,120.81 C306.87634,121.351336 308.181327,121.622 309.573334,121.622 C310.888007,121.622 312.057662,121.409335 313.082334,120.984 C314.107006,120.558665 314.986663,120.017337 315.721334,119.36 C316.456004,118.702663 317.055331,117.977671 317.519334,117.185 C317.983336,116.392329 318.331333,115.609337 318.563334,114.836 L321.637334,116.112 C321.289332,117.194672 320.78667,118.248328 320.129334,119.273 C319.471997,120.297672 318.631006,121.215996 317.606334,122.028 C316.581662,122.840004 315.40234,123.497331 314.068334,124 C312.734327,124.502669 311.236009,124.754 309.573334,124.754 C307.601324,124.754 305.793675,124.396337 304.150334,123.681 C302.506992,122.965663 301.07634,121.96034 299.858334,120.665 C298.640328,119.36966 297.693004,117.832676 297.016334,116.054 C296.339664,114.275324 296.001334,112.322677 296.001334,110.196 C296.001334,108.069323 296.339664,106.107009 297.016334,104.309 C297.693004,102.510991 298.640328,100.96434 299.858334,99.669 C301.07634,98.3736602 302.516659,97.3683369 304.179334,96.653 C305.842009,95.9376631 307.639991,95.58 309.573334,95.58 C311.236009,95.58 312.72466,95.8119977 314.039334,96.276 C315.354007,96.7400023 316.504329,97.3779959 317.490334,98.19 C318.476339,99.0020041 319.297997,99.9299948 319.955334,100.974 C320.61267,102.018005 321.095999,103.119994 321.405334,104.28 L318.331334,105.556 C318.099333,104.743996 317.761003,103.932004 317.316334,103.12 C316.871665,102.307996 316.301337,101.573337 315.605334,100.916 C314.90933,100.258663 314.058672,99.727002 313.053334,99.321 C312.047995,98.914998 310.888007,98.712 309.573334,98.712 Z M342.034,108.108 L354.04,124 L349.69,124 L339.598,110.486 L334.494,115.532 L334.494,124 L331.014,124 L331.014,82.124 L334.494,82.124 L334.494,110.95 L348.994,96.334 L353.808,96.334 L342.034,108.108 Z M372.406667,98.712 C371.01466,98.712 369.709673,98.9729974 368.491667,99.495 C367.273661,100.017003 366.210338,100.770995 365.301667,101.757 C364.392996,102.743005 363.668003,103.951326 363.126667,105.382 C362.585331,106.812674 362.314667,108.417324 362.314667,110.196 C362.314667,111.936009 362.575665,113.51166 363.097667,114.923 C363.61967,116.33434 364.344663,117.532995 365.272667,118.519 C366.200672,119.505005 367.273661,120.268664 368.491667,120.81 C369.709673,121.351336 371.01466,121.622 372.406667,121.622 C373.72134,121.622 374.890995,121.409335 375.915667,120.984 C376.940339,120.558665 377.819997,120.017337 378.554667,119.36 C379.289338,118.702663 379.888665,117.977671 380.352667,117.185 C380.81667,116.392329 381.164666,115.609337 381.396667,114.836 L384.470667,116.112 C384.122665,117.194672 383.620004,118.248328 382.962667,119.273 C382.305331,120.297672 381.464339,121.215996 380.439667,122.028 C379.414995,122.840004 378.235674,123.497331 376.901667,124 C375.567661,124.502669 374.069342,124.754 372.406667,124.754 C370.434657,124.754 368.627009,124.396337 366.983667,123.681 C365.340326,122.965663 363.909673,121.96034 362.691667,120.665 C361.473661,119.36966 360.526337,117.832676 359.849667,116.054 C359.172997,114.275324 358.834667,112.322677 358.834667,110.196 C358.834667,108.069323 359.172997,106.107009 359.849667,104.309 C360.526337,102.510991 361.473661,100.96434 362.691667,99.669 C363.909673,98.3736602 365.349992,97.3683369 367.012667,96.653 C368.675342,95.9376631 370.473324,95.58 372.406667,95.58 C374.069342,95.58 375.557994,95.8119977 376.872667,96.276 C378.18734,96.7400023 379.337662,97.3779959 380.323667,98.19 C381.309672,99.0020041 382.131331,99.9299948 382.788667,100.974 C383.446004,102.018005 383.929332,103.119994 384.238667,104.28 L381.164667,105.556 C380.932666,104.743996 380.594336,103.932004 380.149667,103.12 C379.704998,102.307996 379.134671,101.573337 378.438667,100.916 C377.742664,100.258663 376.892006,99.727002 375.886667,99.321 C374.881329,98.914998 373.72134,98.712 372.406667,98.712 Z M397.327334,124 L393.847334,124 L393.847334,82.124 L397.327334,82.124 L397.327334,100.684 C398.062004,99.291993 399.183326,98.0933384 400.691334,97.088 C402.199342,96.0826616 404.03599,95.58 406.201334,95.58 C407.825342,95.58 409.255994,95.850664 410.493334,96.392 C411.730673,96.933336 412.75533,97.6679954 413.567334,98.596 C414.379338,99.5240046 414.988332,100.616327 415.394334,101.873 C415.800336,103.129673 416.003334,104.473326 416.003334,105.904 L416.003334,124 L412.523334,124 L412.523334,106.484 C412.523334,105.401328 412.378335,104.386338 412.088334,103.439 C411.798333,102.491662 411.344004,101.670003 410.725334,100.974 C410.106664,100.277997 409.333339,99.727002 408.405334,99.321 C407.477329,98.914998 406.356007,98.712 405.041334,98.712 C403.881328,98.712 402.818005,98.9536643 401.851334,99.437 C400.884662,99.9203357 400.072671,100.558329 399.415334,101.351 C398.757997,102.143671 398.245669,103.061995 397.878334,104.106 C397.510999,105.150005 397.327334,106.232661 397.327334,107.354 L397.327334,124 Z M434.428001,124.696 C432.95866,124.696 431.66334,124.473669 430.542001,124.029 C429.420662,123.584331 428.483004,123.004337 427.729001,122.289 C426.974997,121.573663 426.395003,120.742338 425.989001,119.795 C425.582999,118.847662 425.380001,117.871338 425.380001,116.866 C425.380001,114.507322 426.124327,112.65134 427.613001,111.298 C429.101675,109.94466 431.121988,109.074669 433.674001,108.688 L441.040001,107.586 C442.238673,107.392666 443.021666,107.064002 443.389001,106.6 C443.756336,106.135998 443.940001,105.575337 443.940001,104.918 C443.940001,103.061991 443.35034,101.554006 442.171001,100.394 C440.991661,99.2339942 439.261345,98.654 436.980001,98.654 C434.77599,98.654 432.987674,99.2243276 431.615001,100.365 C430.242327,101.505672 429.440002,103.081323 429.208001,105.092 L425.960001,104.396 C426.114668,103.081327 426.501331,101.882672 427.120001,100.8 C427.73867,99.7173279 428.521663,98.7990038 429.469001,98.045 C430.416339,97.2909962 431.527994,96.7013355 432.804001,96.276 C434.080007,95.8506645 435.45266,95.638 436.922001,95.638 C438.700676,95.638 440.256994,95.8893308 441.591001,96.392 C442.925007,96.8946692 444.01733,97.5809956 444.868001,98.451 C445.718672,99.3210043 446.356665,100.345661 446.782001,101.525 C447.207336,102.704339 447.420001,103.951327 447.420001,105.266 L447.420001,119.244 C447.420001,120.365339 447.458667,121.29333 447.536001,122.028 C447.613334,122.76267 447.71,123.419997 447.826001,124 L444.404001,124 C444.326667,123.690665 444.249334,123.101004 444.172001,122.231 C444.094667,121.360996 444.056001,120.365339 444.056001,119.244 C443.746666,119.901337 443.302004,120.548997 442.722001,121.187 C442.141998,121.825003 441.446005,122.404997 440.634001,122.927 C439.821997,123.449003 438.903673,123.874332 437.879001,124.203 C436.854329,124.531668 435.704007,124.696 434.428001,124.696 Z M434.834001,121.738 C436.148674,121.738 437.366662,121.525335 438.488001,121.1 C439.60934,120.674665 440.575997,120.075337 441.388001,119.302 C442.200005,118.528663 442.828332,117.581339 443.273001,116.46 C443.71767,115.338661 443.940001,114.082007 443.940001,112.69 L443.940001,109.558 C443.862667,109.635334 443.640336,109.751333 443.273001,109.906 C442.905666,110.060667 442.451337,110.176666 441.910001,110.254 L434.196001,111.414 C432.571993,111.646001 431.286339,112.206662 430.339001,113.096 C429.391663,113.985338 428.918001,115.183992 428.918001,116.692 C428.918001,117.968006 429.420662,119.127995 430.426001,120.172 C431.431339,121.216005 432.900658,121.738 434.834001,121.738 Z M458.826667,124 L458.826667,96.334 L462.306667,96.334 L462.306667,124 L458.826667,124 Z M457.666667,84.85 C457.666667,83.9993291 457.946998,83.303336 458.507667,82.762 C459.068337,82.220664 459.754663,81.95 460.566667,81.95 C461.378672,81.95 462.064998,82.220664 462.625667,82.762 C463.186337,83.303336 463.466667,83.9993291 463.466667,84.85 C463.466667,85.7006709 463.186337,86.396664 462.625667,86.938 C462.064998,87.479336 461.378672,87.75 460.566667,87.75 C459.754663,87.75 459.068337,87.479336 458.507667,86.938 C457.946998,86.396664 457.666667,85.7006709 457.666667,84.85 Z M477.483334,124 L474.003334,124 L474.003334,96.334 L477.367334,96.334 L477.367334,100.742 C478.140671,99.2726593 479.30066,98.0546715 480.847334,97.088 C482.394009,96.1213285 484.230657,95.638 486.357334,95.638 C487.981342,95.638 489.402328,95.908664 490.620334,96.45 C491.83834,96.991336 492.862997,97.7259954 493.694334,98.654 C494.525672,99.5820046 495.144332,100.674327 495.550334,101.931 C495.956336,103.187673 496.159334,104.531326 496.159334,105.962 L496.159334,124 L492.679334,124 L492.679334,106.542 C492.679334,105.459328 492.544002,104.444338 492.273334,103.497 C492.002666,102.549662 491.558004,101.728003 490.939334,101.032 C490.320664,100.335997 489.537672,99.785002 488.590334,99.379 C487.642996,98.972998 486.512007,98.77 485.197334,98.77 C483.998662,98.77 482.925672,99.0019977 481.978334,99.466 C481.030996,99.9300023 480.219004,100.558329 479.542334,101.351 C478.865664,102.143671 478.353336,103.071661 478.005334,104.135 C477.657332,105.198339 477.483334,106.309994 477.483334,107.47 L477.483334,124 Z M536.662668,98.712 C535.270661,98.712 533.965674,98.9729974 532.747668,99.495 C531.529662,100.017003 530.466339,100.770995 529.557668,101.757 C528.648996,102.743005 527.924004,103.951326 527.382668,105.382 C526.841332,106.812674 526.570668,108.417324 526.570668,110.196 C526.570668,111.936009 526.831665,113.51166 527.353668,114.923 C527.87567,116.33434 528.600663,117.532995 529.528668,118.519 C530.456672,119.505005 531.529662,120.268664 532.747668,120.81 C533.965674,121.351336 535.270661,121.622 536.662668,121.622 C537.977341,121.622 539.146996,121.409335 540.171668,120.984 C541.196339,120.558665 542.075997,120.017337 542.810668,119.36 C543.545338,118.702663 544.144665,117.977671 544.608668,117.185 C545.07267,116.392329 545.420667,115.609337 545.652668,114.836 L548.726668,116.112 C548.378666,117.194672 547.876004,118.248328 547.218668,119.273 C546.561331,120.297672 545.720339,121.215996 544.695668,122.028 C543.670996,122.840004 542.491674,123.497331 541.157668,124 C539.823661,124.502669 538.325343,124.754 536.662668,124.754 C534.690658,124.754 532.883009,124.396337 531.239668,123.681 C529.596326,122.965663 528.165674,121.96034 526.947668,120.665 C525.729662,119.36966 524.782338,117.832676 524.105668,116.054 C523.428998,114.275324 523.090668,112.322677 523.090668,110.196 C523.090668,108.069323 523.428998,106.107009 524.105668,104.309 C524.782338,102.510991 525.729662,100.96434 526.947668,99.669 C528.165674,98.3736602 529.605993,97.3683369 531.268668,96.653 C532.931343,95.9376631 534.729325,95.58 536.662668,95.58 C538.325343,95.58 539.813994,95.8119977 541.128668,96.276 C542.443341,96.7400023 543.593663,97.3779959 544.579668,98.19 C545.565673,99.0020041 546.387331,99.9299948 547.044668,100.974 C547.702004,102.018005 548.185333,103.119994 548.494668,104.28 L545.420668,105.556 C545.188667,104.743996 544.850337,103.932004 544.405668,103.12 C543.960999,102.307996 543.390671,101.573337 542.694668,100.916 C541.998664,100.258663 541.148006,99.727002 540.142668,99.321 C539.137329,98.914998 537.977341,98.712 536.662668,98.712 Z M569.935334,124.754 C568.001991,124.754 566.204009,124.396337 564.541334,123.681 C562.878659,122.965663 561.428674,121.970006 560.191334,120.694 C558.953995,119.417994 557.977671,117.890676 557.262334,116.112 C556.546998,114.333324 556.189334,112.361344 556.189334,110.196 C556.189334,108.030656 556.537331,106.049009 557.233334,104.251 C557.929338,102.452991 558.895995,100.916006 560.133334,99.64 C561.370674,98.3639936 562.830326,97.3780035 564.512334,96.682 C566.194343,95.9859965 568.001991,95.638 569.935334,95.638 C571.868677,95.638 573.666659,95.9859965 575.329334,96.682 C576.992009,97.3780035 578.441995,98.3639936 579.679334,99.64 C580.916674,100.916006 581.892998,102.452991 582.608334,104.251 C583.323671,106.049009 583.681334,108.030656 583.681334,110.196 C583.681334,112.361344 583.323671,114.333324 582.608334,116.112 C581.892998,117.890676 580.916674,119.417994 579.679334,120.694 C578.441995,121.970006 576.992009,122.965663 575.329334,123.681 C573.666659,124.396337 571.868677,124.754 569.935334,124.754 Z M559.727334,110.196 C559.727334,112.013342 560.007665,113.62766 560.568334,115.039 C561.129004,116.45034 561.87333,117.639329 562.801334,118.606 C563.729339,119.572671 564.811995,120.316997 566.049334,120.839 C567.286674,121.361003 568.581994,121.622 569.935334,121.622 C571.288675,121.622 572.583995,121.361003 573.821334,120.839 C575.058674,120.316997 576.14133,119.572671 577.069334,118.606 C577.997339,117.639329 578.741665,116.45034 579.302334,115.039 C579.863004,113.62766 580.143334,112.013342 580.143334,110.196 C580.143334,108.378658 579.863004,106.76434 579.302334,105.353 C578.741665,103.94166 577.997339,102.743005 577.069334,101.757 C576.14133,100.770995 575.058674,100.026669 573.821334,99.524 C572.583995,99.0213308 571.288675,98.77 569.935334,98.77 C568.581994,98.77 567.286674,99.0213308 566.049334,99.524 C564.811995,100.026669 563.729339,100.770995 562.801334,101.757 C561.87333,102.743005 561.129004,103.94166 560.568334,105.353 C560.007665,106.76434 559.727334,108.378658 559.727334,110.196 Z M596.944001,124 L593.464001,124 L593.464001,96.334 L596.828001,96.334 L596.828001,100.742 C597.601338,99.2726593 598.761327,98.0546715 600.308001,97.088 C601.854676,96.1213285 603.691324,95.638 605.818001,95.638 C607.442009,95.638 608.862995,95.908664 610.081001,96.45 C611.299007,96.991336 612.323664,97.7259954 613.155001,98.654 C613.986339,99.5820046 614.604999,100.674327 615.011001,101.931 C615.417003,103.187673 615.620001,104.531326 615.620001,105.962 L615.620001,124 L612.140001,124 L612.140001,106.542 C612.140001,105.459328 612.004669,104.444338 611.734001,103.497 C611.463333,102.549662 611.018671,101.728003 610.400001,101.032 C609.781331,100.335997 608.998339,99.785002 608.051001,99.379 C607.103663,98.972998 605.972674,98.77 604.658001,98.77 C603.459329,98.77 602.386339,99.0019977 601.439001,99.466 C600.491663,99.9300023 599.679671,100.558329 599.003001,101.351 C598.326331,102.143671 597.814003,103.071661 597.466001,104.135 C597.117999,105.198339 596.944001,106.309994 596.944001,107.47 L596.944001,124 Z M632.304668,99.466 L632.304668,124 L628.824668,124 L628.824668,99.466 L623.140668,99.466 L623.140668,96.334 L628.824668,96.334 L628.824668,90.592 C628.824668,87.6533186 629.617327,85.4300075 631.202668,83.922 C632.788009,82.4139925 634.740656,81.66 637.060668,81.66 C637.795338,81.66 638.423665,81.7179994 638.945668,81.834 C639.467671,81.9500006 639.883333,82.0853326 640.192668,82.24 L640.192668,85.372 C639.922,85.2559994 639.574003,85.1496671 639.148668,85.053 C638.723332,84.9563328 638.201338,84.908 637.582668,84.908 C636.886664,84.908 636.219671,85.0046657 635.581668,85.198 C634.943665,85.3913343 634.383004,85.7199977 633.899668,86.184 C633.416332,86.6480023 633.029669,87.2569962 632.739668,88.011 C632.449666,88.7650038 632.304668,89.6833279 632.304668,90.766 L632.304668,96.334 L640.018668,96.334 L640.018668,99.466 L632.304668,99.466 Z M667.375335,107.934 C667.336668,106.657994 667.10467,105.459339 666.679335,104.338 C666.253999,103.216661 665.654672,102.240337 664.881335,101.409 C664.107997,100.577663 663.151007,99.9203357 662.010335,99.437 C660.869662,98.9536643 659.584009,98.712 658.153335,98.712 C656.877328,98.712 655.68834,98.9536643 654.586335,99.437 C653.484329,99.9203357 652.527339,100.577663 651.715335,101.409 C650.903331,102.240337 650.25567,103.216661 649.772335,104.338 C649.288999,105.459339 649.008668,106.657994 648.931335,107.934 L667.375335,107.934 Z M670.855335,116.17 C670.468666,117.330006 669.917672,118.431995 669.202335,119.476 C668.486998,120.520005 667.617006,121.438329 666.592335,122.231 C665.567663,123.023671 664.398008,123.642331 663.083335,124.087 C661.768661,124.531669 660.318676,124.754 658.733335,124.754 C656.915992,124.754 655.185676,124.425337 653.542335,123.768 C651.898993,123.110663 650.468341,122.153673 649.250335,120.897 C648.032329,119.640327 647.065672,118.103342 646.350335,116.286 C645.634998,114.468658 645.277335,112.400012 645.277335,110.08 C645.277335,107.914656 645.625331,105.942676 646.321335,104.164 C647.017338,102.385324 647.945329,100.858006 649.105335,99.582 C650.26534,98.3059936 651.61866,97.3200035 653.165335,96.624 C654.712009,95.9279965 656.355326,95.58 658.095335,95.58 C660.144678,95.58 661.961993,95.9279965 663.547335,96.624 C665.132676,97.3200035 666.476329,98.2866605 667.578335,99.524 C668.68034,100.76134 669.530998,102.230658 670.130335,103.932 C670.729671,105.633342 671.029335,107.508656 671.029335,109.558 L671.029335,110.196 C671.029335,110.389334 671.010002,110.601999 670.971335,110.834 L648.815335,110.834 L648.815335,111.066 C648.815335,112.651341 649.076332,114.09166 649.598335,115.387 C650.120337,116.68234 650.835663,117.793995 651.744335,118.722 C652.653006,119.650005 653.706662,120.365331 654.905335,120.868 C656.104007,121.370669 657.379995,121.622 658.733335,121.622 C661.208014,121.622 663.189661,120.984006 664.678335,119.708 C666.167009,118.431994 667.201332,116.885342 667.781335,115.068 L670.855335,116.17 Z M694.732001,99.93 C694.035998,99.7366657 693.224006,99.64 692.296001,99.64 C689.937323,99.64 687.984676,100.403659 686.438001,101.931 C684.891327,103.458341 684.118001,105.807317 684.118001,108.978 L684.118001,124 L680.638001,124 L680.638001,96.334 L684.060001,96.334 L684.060001,101.496 C684.910672,99.562657 686.080327,98.1610043 687.569001,97.291 C689.057676,96.4209956 690.729992,95.986 692.586001,95.986 C693.514006,95.986 694.229332,96.0826657 694.732001,96.276 L694.732001,99.93 Z M722.030668,107.934 C721.992001,106.657994 721.760004,105.459339 721.334668,104.338 C720.909333,103.216661 720.310005,102.240337 719.536668,101.409 C718.763331,100.577663 717.806341,99.9203357 716.665668,99.437 C715.524996,98.9536643 714.239342,98.712 712.808668,98.712 C711.532662,98.712 710.343674,98.9536643 709.241668,99.437 C708.139663,99.9203357 707.182672,100.577663 706.370668,101.409 C705.558664,102.240337 704.911004,103.216661 704.427668,104.338 C703.944332,105.459339 703.664002,106.657994 703.586668,107.934 L722.030668,107.934 Z M725.510668,116.17 C725.124,117.330006 724.573005,118.431995 723.857668,119.476 C723.142331,120.520005 722.27234,121.438329 721.247668,122.231 C720.222996,123.023671 719.053341,123.642331 717.738668,124.087 C716.423995,124.531669 714.974009,124.754 713.388668,124.754 C711.571326,124.754 709.84101,124.425337 708.197668,123.768 C706.554327,123.110663 705.123674,122.153673 703.905668,120.897 C702.687662,119.640327 701.721005,118.103342 701.005668,116.286 C700.290331,114.468658 699.932668,112.400012 699.932668,110.08 C699.932668,107.914656 700.280665,105.942676 700.976668,104.164 C701.672672,102.385324 702.600662,100.858006 703.760668,99.582 C704.920674,98.3059936 706.273994,97.3200035 707.820668,96.624 C709.367343,95.9279965 711.010659,95.58 712.750668,95.58 C714.800012,95.58 716.617327,95.9279965 718.202668,96.624 C719.788009,97.3200035 721.131663,98.2866605 722.233668,99.524 C723.335674,100.76134 724.186332,102.230658 724.785668,103.932 C725.385005,105.633342 725.684668,107.508656 725.684668,109.558 L725.684668,110.196 C725.684668,110.389334 725.665335,110.601999 725.626668,110.834 L703.470668,110.834 L703.470668,111.066 C703.470668,112.651341 703.731666,114.09166 704.253668,115.387 C704.775671,116.68234 705.490997,117.793995 706.399668,118.722 C707.308339,119.650005 708.361996,120.365331 709.560668,120.868 C710.759341,121.370669 712.035328,121.622 713.388668,121.622 C715.863347,121.622 717.844994,120.984006 719.333668,119.708 C720.822342,118.431994 721.856665,116.885342 722.436668,115.068 L725.510668,116.17 Z M738.773335,124 L735.293335,124 L735.293335,96.334 L738.657335,96.334 L738.657335,100.742 C739.430672,99.2726593 740.590661,98.0546715 742.137335,97.088 C743.684009,96.1213285 745.520658,95.638 747.647335,95.638 C749.271343,95.638 750.692329,95.908664 751.910335,96.45 C753.128341,96.991336 754.152997,97.7259954 754.984335,98.654 C755.815672,99.5820046 756.434333,100.674327 756.840335,101.931 C757.246337,103.187673 757.449335,104.531326 757.449335,105.962 L757.449335,124 L753.969335,124 L753.969335,106.542 C753.969335,105.459328 753.834003,104.444338 753.563335,103.497 C753.292667,102.549662 752.848005,101.728003 752.229335,101.032 C751.610665,100.335997 750.827673,99.785002 749.880335,99.379 C748.932997,98.972998 747.802008,98.77 746.487335,98.77 C745.288662,98.77 744.215673,99.0019977 743.268335,99.466 C742.320997,99.9300023 741.509005,100.558329 740.832335,101.351 C740.155665,102.143671 739.643337,103.071661 739.295335,104.135 C738.947333,105.198339 738.773335,106.309994 738.773335,107.47 L738.773335,124 Z M780.514002,98.712 C779.121995,98.712 777.817008,98.9729974 776.599002,99.495 C775.380996,100.017003 774.317673,100.770995 773.409002,101.757 C772.50033,102.743005 771.775338,103.951326 771.234002,105.382 C770.692666,106.812674 770.422002,108.417324 770.422002,110.196 C770.422002,111.936009 770.682999,113.51166 771.205002,114.923 C771.727004,116.33434 772.451997,117.532995 773.380002,118.519 C774.308006,119.505005 775.380996,120.268664 776.599002,120.81 C777.817008,121.351336 779.121995,121.622 780.514002,121.622 C781.828675,121.622 782.99833,121.409335 784.023002,120.984 C785.047673,120.558665 785.927331,120.017337 786.662002,119.36 C787.396672,118.702663 787.995999,117.977671 788.460002,117.185 C788.924004,116.392329 789.272001,115.609337 789.504002,114.836 L792.578002,116.112 C792.23,117.194672 791.727338,118.248328 791.070002,119.273 C790.412665,120.297672 789.571673,121.215996 788.547002,122.028 C787.52233,122.840004 786.343008,123.497331 785.009002,124 C783.674995,124.502669 782.176677,124.754 780.514002,124.754 C778.541992,124.754 776.734343,124.396337 775.091002,123.681 C773.44766,122.965663 772.017008,121.96034 770.799002,120.665 C769.580996,119.36966 768.633672,117.832676 767.957002,116.054 C767.280332,114.275324 766.942002,112.322677 766.942002,110.196 C766.942002,108.069323 767.280332,106.107009 767.957002,104.309 C768.633672,102.510991 769.580996,100.96434 770.799002,99.669 C772.017008,98.3736602 773.457327,97.3683369 775.120002,96.653 C776.782677,95.9376631 778.580659,95.58 780.514002,95.58 C782.176677,95.58 783.665328,95.8119977 784.980002,96.276 C786.294675,96.7400023 787.444997,97.3779959 788.431002,98.19 C789.417007,99.0020041 790.238665,99.9299948 790.896002,100.974 C791.553338,102.018005 792.036667,103.119994 792.346002,104.28 L789.272002,105.556 C789.040001,104.743996 788.701671,103.932004 788.257002,103.12 C787.812333,102.307996 787.242005,101.573337 786.546002,100.916 C785.849998,100.258663 784.99934,99.727002 783.994002,99.321 C782.988663,98.914998 781.828675,98.712 780.514002,98.712 Z M822.138668,107.934 C822.100002,106.657994 821.868004,105.459339 821.442668,104.338 C821.017333,103.216661 820.418006,102.240337 819.644668,101.409 C818.871331,100.577663 817.914341,99.9203357 816.773668,99.437 C815.632996,98.9536643 814.347342,98.712 812.916668,98.712 C811.640662,98.712 810.451674,98.9536643 809.349668,99.437 C808.247663,99.9203357 807.290672,100.577663 806.478668,101.409 C805.666664,102.240337 805.019004,103.216661 804.535668,104.338 C804.052333,105.459339 803.772002,106.657994 803.694668,107.934 L822.138668,107.934 Z M825.618668,116.17 C825.232,117.330006 824.681005,118.431995 823.965668,119.476 C823.250332,120.520005 822.38034,121.438329 821.355668,122.231 C820.330997,123.023671 819.161342,123.642331 817.846668,124.087 C816.531995,124.531669 815.08201,124.754 813.496668,124.754 C811.679326,124.754 809.94901,124.425337 808.305668,123.768 C806.662327,123.110663 805.231675,122.153673 804.013668,120.897 C802.795662,119.640327 801.829005,118.103342 801.113668,116.286 C800.398332,114.468658 800.040668,112.400012 800.040668,110.08 C800.040668,107.914656 800.388665,105.942676 801.084668,104.164 C801.780672,102.385324 802.708663,100.858006 803.868668,99.582 C805.028674,98.3059936 806.381994,97.3200035 807.928668,96.624 C809.475343,95.9279965 811.11866,95.58 812.858668,95.58 C814.908012,95.58 816.725327,95.9279965 818.310668,96.624 C819.89601,97.3200035 821.239663,98.2866605 822.341668,99.524 C823.443674,100.76134 824.294332,102.230658 824.893668,103.932 C825.493005,105.633342 825.792668,107.508656 825.792668,109.558 L825.792668,110.196 C825.792668,110.389334 825.773335,110.601999 825.734668,110.834 L803.578668,110.834 L803.578668,111.066 C803.578668,112.651341 803.839666,114.09166 804.361668,115.387 C804.883671,116.68234 805.598997,117.793995 806.507668,118.722 C807.41634,119.650005 808.469996,120.365331 809.668668,120.868 C810.867341,121.370669 812.143328,121.622 813.496668,121.622 C815.971347,121.622 817.952994,120.984006 819.441668,119.708 C820.930343,118.431994 821.964666,116.885342 822.544668,115.068 L825.618668,116.17 Z" id="a-blockchain-confere"></path>
            </g>
        </g>
    </g>
</svg>