<?xml version="1.0" encoding="UTF-8"?>
<svg width="721px" height="213px" viewBox="0 0 721 213" version="1.1" xmlns="http://www.w3.org/2000/svg" xmlns:xlink="http://www.w3.org/1999/xlink">
    <!-- Generator: Sketch 47.1 (45422) - http://www.bohemiancoding.com/sketch -->
    <title>Group</title>
    <desc>Created with Sketch.</desc>
    <defs></defs>
    <g id="Page-1" stroke="none" stroke-width="1" fill="none" fill-rule="evenodd">
        <g id="A4-Copy-3" transform="translate(-56.000000, -58.000000)" fill="#FFFFFF">
            <g id="Group" transform="translate(56.000000, 33.000000)">
                <g id="noun_1410367_cc" transform="translate(0.000000, 25.000000)" fill-rule="nonzero">
                    <path d="M49.7431556,0 C22.3103342,0 0,22.3568888 0,49.8469531 C0,77.3370175 22.3103342,99.6939063 49.7431556,99.6939063 C77.1759765,99.6939063 99.4863109,77.3370175 99.4863109,49.8469531 C99.4863109,22.3568888 77.1759765,0 49.7431556,0 Z M49.7431556,10.1815053 C71.5878093,10.1815053 89.3260068,27.9567167 89.3260068,49.8469531 C89.3260068,71.7371896 71.5878093,89.5124009 49.7431556,89.5124009 C27.8985014,89.5124009 10.1603039,71.7371896 10.1603039,49.8469531 C10.1603039,27.9567167 27.8985014,10.1815053 49.7431556,10.1815053 Z M159.225228,19.4756089 C158.720189,19.4664947 158.209693,19.4931745 157.696386,19.5568089 C142.413596,21.4658412 133.311987,28.4230377 127.977827,34.8713244 C122.94001,33.4713674 117.733019,32.4535482 112.483528,31.8172041 C109.689445,31.4778206 107.149039,33.4716987 106.852696,36.2716127 C106.51402,39.0715267 108.503746,41.6172343 111.297829,41.9141949 C117.140004,42.5929615 122.89751,43.8653188 128.443343,45.6046592 C130.602407,46.2834263 132.930645,45.4777213 134.200683,43.611112 C137.841459,38.2233992 145.08051,31.3931406 159.008594,29.6538001 C159.135598,29.6538001 159.305596,29.6113772 159.474935,29.8659148 C159.644273,30.1204524 159.517269,30.2898125 159.474935,30.3746583 C153.971437,39.1562067 152.362061,48.2345506 154.775134,56.7191383 L154.775134,56.846738 C154.817468,58.3315409 155.494822,59.7314979 156.680191,60.6648025 C167.856525,69.7008885 175.942764,81.197174 180.091555,93.8392098 C180.768908,95.9179338 182.716465,97.3606446 184.917864,97.3606446 L185.002203,97.3606446 L191.73357,97.3606446 C194.061973,97.3606446 195.92486,99.2274194 195.92486,101.560681 L195.92486,124.469068 C195.92486,126.80233 194.061973,128.669104 191.73357,128.669104 L185.299041,128.669104 C183.055307,128.669104 181.107915,130.111484 180.430562,132.275054 C176.789786,144.238323 169.550239,155.225699 159.559274,164.134516 L159.474935,164.219031 L159.43194,164.261288 C159.050928,164.600672 158.670247,164.897963 158.289236,165.237347 C158.246901,165.27977 158.204236,165.321862 158.161902,165.321862 C147.324244,175.163984 146.224205,186.745777 146.139536,190.054766 L146.139536,190.182366 L146.139536,197.690895 L115.615628,197.690895 L115.615628,190.521253 C115.615628,189.078873 115.022944,187.721173 113.922244,186.745446 C112.821545,185.769718 111.424998,185.303066 109.985622,185.472758 C106.598854,185.812141 103.212086,186.024587 99.8253179,186.024587 C95.5071886,186.024587 91.1467248,185.727626 86.9132648,185.176128 C85.4738884,184.964013 83.9921774,185.430831 82.8914778,186.406559 C81.7907782,187.382286 81.1559243,188.782243 81.1559243,190.224623 L81.1559243,197.733152 L50.6320171,197.733152 L50.6320171,195.485233 L50.6320171,195.273118 C50.3780095,189.758136 48.6424559,175.67339 37.6777941,164.388888 C32.4706382,159.001175 27.8141633,151.916875 23.8347108,143.305018 C23.7923762,143.220172 23.7918801,143.177584 23.7495455,143.135161 C21.3788079,138.553484 19.6010853,133.717103 18.3733819,128.753619 C18.3733819,128.711196 18.3312128,128.668443 18.3312128,128.62602 L18.3312128,128.541505 C17.145844,123.662867 16.5526634,118.657125 16.5526634,113.651219 C16.5526634,110.130115 16.8496669,106.608514 17.4423513,103.172256 C17.9080319,100.414765 16.0451444,97.7850395 13.2510608,97.3183871 C10.4993118,96.8517348 7.87423548,98.7185096 7.40855488,101.518424 C6.73120127,105.50618 6.39235936,109.620874 6.39235936,113.693476 C6.39235936,119.420573 7.07020913,125.190423 8.38258174,130.790251 C8.38258174,130.875097 8.42458528,131.002035 8.46691988,131.086881 C8.46691988,131.086881 8.50908938,131.171561 8.50908938,131.341253 C9.90613119,136.983504 11.9805266,142.541405 14.6476064,147.759427 C19.0927394,157.389434 24.3850606,165.364781 30.3965739,171.55853 C38.8211593,180.255233 40.2600396,191.242939 40.4717126,195.697348 L40.4717126,197.860752 L40.4717126,198.284982 C40.4717126,198.497096 40.4723738,198.709376 40.5147084,198.879068 C41.0227236,204.012244 45.3828568,207.956915 50.5476781,207.956915 L81.1980938,207.956915 C86.786261,207.956915 91.3162283,203.418323 91.3162283,197.818495 L91.3162283,195.909462 C96.015369,196.291269 100.714014,196.333692 105.413155,196.121577 L105.413155,197.860752 C105.413155,203.46058 109.943122,208 115.531289,208 L146.181705,208 C151.769872,208 156.29984,203.46058 156.29984,197.860752 L156.29984,190.351396 C156.342174,188.612055 157.018868,180.212975 164.935438,173.001075 L166.078967,171.982759 L166.163306,171.897417 C166.247975,171.812571 166.375475,171.727891 166.460144,171.643045 C176.747452,162.437267 184.452349,151.153097 188.897482,138.892867 L191.649231,138.892867 C199.565801,138.892867 206,132.444415 206,124.511325 L206,101.602939 C206,93.627426 199.565801,87.1791393 191.649231,87.1791393 L188.431141,87.1791393 C183.604996,74.6219494 175.392249,63.209848 164.469922,53.9616473 L164.469922,53.9193898 C162.861207,48.234716 164.046741,42.1263096 168.026194,35.7628688 C170.227593,32.2417648 170.227758,27.8718708 167.984024,24.3931898 C166.020757,21.349344 162.760498,19.5394092 159.225228,19.4756089 Z" id="Shape" transform="translate(103.000000, 104.000000) scale(-1, 1) translate(-103.000000, -104.000000) "></path>
                </g>
                <text id="deepdive" font-family="GTWalsheimBold, GT Walsheim" font-size="121" font-weight="bold">
                    <tspan x="210.800003" y="211">d</tspan>
                    <tspan x="287.635003" y="211" letter-spacing="-5">ee</tspan>
                    <tspan x="417.269003" y="211" letter-spacing="-1.5">pd</tspan>
                    <tspan x="568.181003" y="211" letter-spacing="-5">ive</tspan>
                </text>
                <text id="pension" font-family="GTWalsheimBold, GT Walsheim" font-size="121" font-weight="bold">
                    <tspan x="253.39" y="121">pension</tspan>
                </text>
            </g>
        </g>
    </g>
</svg>