<?xml version="1.0" encoding="UTF-8"?>
<svg width="721px" height="213px" viewBox="0 0 721 213" version="1.1" xmlns="http://www.w3.org/2000/svg" xmlns:xlink="http://www.w3.org/1999/xlink">
    <!-- Generator: Sketch 47.1 (45422) - http://www.bohemiancoding.com/sketch -->
    <title>Group</title>
    <desc>Created with Sketch.</desc>
    <defs></defs>
    <g id="Page-1" stroke="none" stroke-width="1" fill="none" fill-rule="evenodd">
        <g id="A4-Copy-3" transform="translate(-56.000000, -58.000000)">
            <g id="Group" transform="translate(56.000000, 58.000000)">
                <g id="noun_1410367_cc"></g>
                <path d="M49.7431556,0 C22.3103342,0 0,22.3568888 0,49.8469531 C0,77.3370175 22.3103342,99.6939063 49.7431556,99.6939063 C77.1759765,99.6939063 99.4863109,77.3370175 99.4863109,49.8469531 C99.4863109,22.3568888 77.1759765,0 49.7431556,0 Z M49.7431556,10.1815053 C71.5878093,10.1815053 89.3260068,27.9567167 89.3260068,49.8469531 C89.3260068,71.7371896 71.5878093,89.5124009 49.7431556,89.5124009 C27.8985014,89.5124009 10.1603039,71.7371896 10.1603039,49.8469531 C10.1603039,27.9567167 27.8985014,10.1815053 49.7431556,10.1815053 Z M159.225228,19.4756089 C158.720189,19.4664947 158.209693,19.4931745 157.696386,19.5568089 C142.413596,21.4658412 133.311987,28.4230377 127.977827,34.8713244 C122.94001,33.4713674 117.733019,32.4535482 112.483528,31.8172041 C109.689445,31.4778206 107.149039,33.4716987 106.852696,36.2716127 C106.51402,39.0715267 108.503746,41.6172343 111.297829,41.9141949 C117.140004,42.5929615 122.89751,43.8653188 128.443343,45.6046592 C130.602407,46.2834263 132.930645,45.4777213 134.200683,43.611112 C137.841459,38.2233992 145.08051,31.3931406 159.008594,29.6538001 C159.135598,29.6538001 159.305596,29.6113772 159.474935,29.8659148 C159.644273,30.1204524 159.517269,30.2898125 159.474935,30.3746583 C153.971437,39.1562067 152.362061,48.2345506 154.775134,56.7191383 L154.775134,56.846738 C154.817468,58.3315409 155.494822,59.7314979 156.680191,60.6648025 C167.856525,69.7008885 175.942764,81.197174 180.091555,93.8392098 C180.768908,95.9179338 182.716465,97.3606446 184.917864,97.3606446 L185.002203,97.3606446 L191.73357,97.3606446 C194.061973,97.3606446 195.92486,99.2274194 195.92486,101.560681 L195.92486,124.469068 C195.92486,126.80233 194.061973,128.669104 191.73357,128.669104 L185.299041,128.669104 C183.055307,128.669104 181.107915,130.111484 180.430562,132.275054 C176.789786,144.238323 169.550239,155.225699 159.559274,164.134516 L159.474935,164.219031 L159.43194,164.261288 C159.050928,164.600672 158.670247,164.897963 158.289236,165.237347 C158.246901,165.27977 158.204236,165.321862 158.161902,165.321862 C147.324244,175.163984 146.224205,186.745777 146.139536,190.054766 L146.139536,190.182366 L146.139536,197.690895 L115.615628,197.690895 L115.615628,190.521253 C115.615628,189.078873 115.022944,187.721173 113.922244,186.745446 C112.821545,185.769718 111.424998,185.303066 109.985622,185.472758 C106.598854,185.812141 103.212086,186.024587 99.8253179,186.024587 C95.5071886,186.024587 91.1467248,185.727626 86.9132648,185.176128 C85.4738884,184.964013 83.9921774,185.430831 82.8914778,186.406559 C81.7907782,187.382286 81.1559243,188.782243 81.1559243,190.224623 L81.1559243,197.733152 L50.6320171,197.733152 L50.6320171,195.485233 L50.6320171,195.273118 C50.3780095,189.758136 48.6424559,175.67339 37.6777941,164.388888 C32.4706382,159.001175 27.8141633,151.916875 23.8347108,143.305018 C23.7923762,143.220172 23.7918801,143.177584 23.7495455,143.135161 C21.3788079,138.553484 19.6010853,133.717103 18.3733819,128.753619 C18.3733819,128.711196 18.3312128,128.668443 18.3312128,128.62602 L18.3312128,128.541505 C17.145844,123.662867 16.5526634,118.657125 16.5526634,113.651219 C16.5526634,110.130115 16.8496669,106.608514 17.4423513,103.172256 C17.9080319,100.414765 16.0451444,97.7850395 13.2510608,97.3183871 C10.4993118,96.8517348 7.87423548,98.7185096 7.40855488,101.518424 C6.73120127,105.50618 6.39235936,109.620874 6.39235936,113.693476 C6.39235936,119.420573 7.07020913,125.190423 8.38258174,130.790251 C8.38258174,130.875097 8.42458528,131.002035 8.46691988,131.086881 C8.46691988,131.086881 8.50908938,131.171561 8.50908938,131.341253 C9.90613119,136.983504 11.9805266,142.541405 14.6476064,147.759427 C19.0927394,157.389434 24.3850606,165.364781 30.3965739,171.55853 C38.8211593,180.255233 40.2600396,191.242939 40.4717126,195.697348 L40.4717126,197.860752 L40.4717126,198.284982 C40.4717126,198.497096 40.4723738,198.709376 40.5147084,198.879068 C41.0227236,204.012244 45.3828568,207.956915 50.5476781,207.956915 L81.1980938,207.956915 C86.786261,207.956915 91.3162283,203.418323 91.3162283,197.818495 L91.3162283,195.909462 C96.015369,196.291269 100.714014,196.333692 105.413155,196.121577 L105.413155,197.860752 C105.413155,203.46058 109.943122,208 115.531289,208 L146.181705,208 C151.769872,208 156.29984,203.46058 156.29984,197.860752 L156.29984,190.351396 C156.342174,188.612055 157.018868,180.212975 164.935438,173.001075 L166.078967,171.982759 L166.163306,171.897417 C166.247975,171.812571 166.375475,171.727891 166.460144,171.643045 C176.747452,162.437267 184.452349,151.153097 188.897482,138.892867 L191.649231,138.892867 C199.565801,138.892867 206,132.444415 206,124.511325 L206,101.602939 C206,93.627426 199.565801,87.1791393 191.649231,87.1791393 L188.431141,87.1791393 C183.604996,74.6219494 175.392249,63.209848 164.469922,53.9616473 L164.469922,53.9193898 C162.861207,48.234716 164.046741,42.1263096 168.026194,35.7628688 C170.227593,32.2417648 170.227758,27.8718708 167.984024,24.3931898 C166.020757,21.349344 162.760498,19.5394092 159.225228,19.4756089 Z" id="Shape" fill="#FFFFFF" fill-rule="nonzero" transform="translate(103.000000, 104.000000) scale(-1, 1) translate(-103.000000, -104.000000) "></path>
                <path d="M247.342003,171.722 C249.439347,171.722 251.334995,171.318671 253.029003,170.512 C254.723012,169.705329 256.174997,168.636507 257.385003,167.3055 C258.595009,165.974493 259.542833,164.401509 260.228503,162.5865 C260.914173,160.771491 261.257003,158.855677 261.257003,156.839 C261.257003,154.822323 260.914173,152.926676 260.228503,151.152 C259.542833,149.377324 258.595009,147.80434 257.385003,146.433 C256.174997,145.06166 254.723012,143.972671 253.029003,143.166 C251.334995,142.359329 249.439347,141.956 247.342003,141.956 C245.244659,141.956 243.349012,142.359329 241.655003,143.166 C239.960995,143.972671 238.509009,145.06166 237.299003,146.433 C236.088997,147.80434 235.141173,149.377324 234.455503,151.152 C233.769833,152.926676 233.427003,154.822323 233.427003,156.839 C233.427003,158.855677 233.769833,160.771491 234.455503,162.5865 C235.141173,164.401509 236.088997,165.974493 237.299003,167.3055 C238.509009,168.636507 239.960995,169.705329 241.655003,170.512 C243.349012,171.318671 245.244659,171.722 247.342003,171.722 Z M261.257003,177.772 C260.530999,179.14334 259.563009,180.413827 258.353003,181.5835 C257.142997,182.753173 255.751511,183.761496 254.178503,184.6085 C252.605495,185.455504 250.891346,186.141164 249.036003,186.6655 C247.18066,187.189836 245.325346,187.452 243.470003,187.452 C239.275315,187.452 235.423521,186.665508 231.914503,185.0925 C228.405486,183.519492 225.400682,181.381847 222.900003,178.6795 C220.399324,175.977153 218.463343,172.750519 217.092003,168.9995 C215.720663,165.248481 215.035003,161.195022 215.035003,156.839 C215.035003,152.482978 215.720663,148.429519 217.092003,144.6785 C218.463343,140.927481 220.399324,137.700847 222.900003,134.9985 C225.400682,132.296153 228.405486,130.158508 231.914503,128.5855 C235.423521,127.012492 239.275315,126.226 243.470003,126.226 C245.325346,126.226 247.18066,126.488164 249.036003,127.0125 C250.891346,127.536836 252.605495,128.242662 254.178503,129.13 C255.751511,130.017338 257.142997,131.065994 258.353003,132.276 C259.563009,133.486006 260.530999,134.736327 261.257003,136.027 L261.257003,101.3 L279.770003,101.3 L279.770003,186 L261.257003,186 L261.257003,177.772 Z M310.141003,161.316 C310.22167,163.090676 310.483834,164.764492 310.927503,166.3375 C311.371172,167.910508 312.097165,169.281827 313.105503,170.4515 C314.113841,171.621173 315.424662,172.54883 317.038003,173.2345 C318.651344,173.92017 320.667991,174.263 323.088003,174.263 C326.314686,174.263 328.754828,173.617673 330.408503,172.327 C332.062178,171.036327 333.211666,169.463343 333.857003,167.608 L352.007003,167.608 C351.603668,170.35068 350.655844,172.931988 349.163503,175.352 C347.671162,177.772012 345.694849,179.889491 343.234503,181.7045 C340.774157,183.519509 337.870186,184.951328 334.522503,186 C331.17482,187.048672 327.403691,187.573 323.209003,187.573 C318.126978,187.573 313.629856,186.826841 309.717503,185.3345 C305.80515,183.842159 302.518016,181.72468 299.856003,178.982 C297.19399,176.23932 295.177343,172.992519 293.806003,169.2415 C292.434663,165.490481 291.749003,161.356356 291.749003,156.839 C291.749003,152.563645 292.414496,148.570685 293.745503,144.86 C295.07651,141.149315 297.052823,137.902514 299.674503,135.1195 C302.296183,132.336486 305.522817,130.138341 309.354503,128.525 C313.186189,126.911659 317.642978,126.105 322.725003,126.105 C327.323026,126.105 331.457151,126.830993 335.127503,128.283 C338.797855,129.735007 341.943823,131.670988 344.565503,134.091 C347.187183,136.511012 349.203829,139.334317 350.615503,142.561 C352.027177,145.787683 352.733003,149.175649 352.733003,152.725 C352.733003,153.935006 352.712837,155.22566 352.672503,156.597 C352.63217,157.96834 352.450671,159.541324 352.128003,161.316 L310.141003,161.316 Z M322.604003,138.447 C318.973985,138.447 315.989348,139.495656 313.650003,141.593 C311.310658,143.690344 310.141003,146.715314 310.141003,150.668 L334.583003,150.668 C334.583003,146.876648 333.473847,143.892011 331.255503,141.714 C329.037159,139.535989 326.153354,138.447 322.604003,138.447 Z M374.958003,161.316 C375.03867,163.090676 375.300834,164.764492 375.744503,166.3375 C376.188172,167.910508 376.914165,169.281827 377.922503,170.4515 C378.930841,171.621173 380.241662,172.54883 381.855003,173.2345 C383.468344,173.92017 385.484991,174.263 387.905003,174.263 C391.131686,174.263 393.571828,173.617673 395.225503,172.327 C396.879178,171.036327 398.028666,169.463343 398.674003,167.608 L416.824003,167.608 C416.420668,170.35068 415.472844,172.931988 413.980503,175.352 C412.488162,177.772012 410.511849,179.889491 408.051503,181.7045 C405.591157,183.519509 402.687186,184.951328 399.339503,186 C395.99182,187.048672 392.220691,187.573 388.026003,187.573 C382.943978,187.573 378.446856,186.826841 374.534503,185.3345 C370.62215,183.842159 367.335016,181.72468 364.673003,178.982 C362.01099,176.23932 359.994343,172.992519 358.623003,169.2415 C357.251663,165.490481 356.566003,161.356356 356.566003,156.839 C356.566003,152.563645 357.231496,148.570685 358.562503,144.86 C359.89351,141.149315 361.869823,137.902514 364.491503,135.1195 C367.113183,132.336486 370.339817,130.138341 374.171503,128.525 C378.003189,126.911659 382.459978,126.105 387.542003,126.105 C392.140026,126.105 396.274151,126.830993 399.944503,128.283 C403.614855,129.735007 406.760823,131.670988 409.382503,134.091 C412.004183,136.511012 414.020829,139.334317 415.432503,142.561 C416.844177,145.787683 417.550003,149.175649 417.550003,152.725 C417.550003,153.935006 417.529837,155.22566 417.489503,156.597 C417.44917,157.96834 417.267671,159.541324 416.945003,161.316 L374.958003,161.316 Z M387.421003,138.447 C383.790985,138.447 380.806348,139.495656 378.467003,141.593 C376.127658,143.690344 374.958003,146.715314 374.958003,150.668 L399.400003,150.668 C399.400003,146.876648 398.290847,143.892011 396.072503,141.714 C393.854159,139.535989 390.970354,138.447 387.421003,138.447 Z M457.683003,141.956 C455.585659,141.956 453.669845,142.359329 451.935503,143.166 C450.201161,143.972671 448.729009,145.041493 447.519003,146.3725 C446.308997,147.703507 445.361173,149.276491 444.675503,151.0915 C443.989833,152.906509 443.647003,154.822323 443.647003,156.839 C443.647003,158.855677 443.989833,160.771491 444.675503,162.5865 C445.361173,164.401509 446.308997,165.974493 447.519003,167.3055 C448.729009,168.636507 450.201161,169.705329 451.935503,170.512 C453.669845,171.318671 455.585659,171.722 457.683003,171.722 C459.69968,171.722 461.554995,171.318671 463.249003,170.512 C464.943012,169.705329 466.394997,168.636507 467.605003,167.3055 C468.815009,165.974493 469.762833,164.401509 470.448503,162.5865 C471.134173,160.771491 471.477003,158.855677 471.477003,156.839 C471.477003,154.822323 471.134173,152.906509 470.448503,151.0915 C469.762833,149.276491 468.815009,147.703507 467.605003,146.3725 C466.394997,145.041493 464.943012,143.972671 463.249003,143.166 C461.554995,142.359329 459.69968,141.956 457.683003,141.956 Z M443.647003,136.027 C444.373007,134.736327 445.340997,133.486006 446.551003,132.276 C447.761009,131.065994 449.172662,130.017338 450.786003,129.13 C452.399344,128.242662 454.113494,127.536836 455.928503,127.0125 C457.743512,126.488164 459.618993,126.226 461.555003,126.226 C465.749691,126.226 469.601486,127.012492 473.110503,128.5855 C476.619521,130.158508 479.624324,132.296153 482.125003,134.9985 C484.625682,137.700847 486.561663,140.927481 487.933003,144.6785 C489.304343,148.429519 489.990003,152.482978 489.990003,156.839 C489.990003,161.195022 489.304343,165.248481 487.933003,168.9995 C486.561663,172.750519 484.625682,175.977153 482.125003,178.6795 C479.624324,181.381847 476.619521,183.519492 473.110503,185.0925 C469.601486,186.665508 465.749691,187.452 461.555003,187.452 C459.618993,187.452 457.743512,187.189836 455.928503,186.6655 C454.113494,186.141164 452.399344,185.435338 450.786003,184.548 C449.172662,183.660662 447.761009,182.632173 446.551003,181.4625 C445.340997,180.292827 444.373007,179.02234 443.647003,177.651 L443.647003,212.378 L425.134003,212.378 L425.134003,127.678 L443.647003,127.678 L443.647003,136.027 Z M529.388003,171.722 C531.485347,171.722 533.380995,171.318671 535.075003,170.512 C536.769012,169.705329 538.220997,168.636507 539.431003,167.3055 C540.641009,165.974493 541.588833,164.401509 542.274503,162.5865 C542.960173,160.771491 543.303003,158.855677 543.303003,156.839 C543.303003,154.822323 542.960173,152.926676 542.274503,151.152 C541.588833,149.377324 540.641009,147.80434 539.431003,146.433 C538.220997,145.06166 536.769012,143.972671 535.075003,143.166 C533.380995,142.359329 531.485347,141.956 529.388003,141.956 C527.290659,141.956 525.395012,142.359329 523.701003,143.166 C522.006995,143.972671 520.555009,145.06166 519.345003,146.433 C518.134997,147.80434 517.187173,149.377324 516.501503,151.152 C515.815833,152.926676 515.473003,154.822323 515.473003,156.839 C515.473003,158.855677 515.815833,160.771491 516.501503,162.5865 C517.187173,164.401509 518.134997,165.974493 519.345003,167.3055 C520.555009,168.636507 522.006995,169.705329 523.701003,170.512 C525.395012,171.318671 527.290659,171.722 529.388003,171.722 Z M543.303003,177.772 C542.576999,179.14334 541.609009,180.413827 540.399003,181.5835 C539.188997,182.753173 537.797511,183.761496 536.224503,184.6085 C534.651495,185.455504 532.937346,186.141164 531.082003,186.6655 C529.22666,187.189836 527.371346,187.452 525.516003,187.452 C521.321315,187.452 517.469521,186.665508 513.960503,185.0925 C510.451486,183.519492 507.446682,181.381847 504.946003,178.6795 C502.445324,175.977153 500.509343,172.750519 499.138003,168.9995 C497.766663,165.248481 497.081003,161.195022 497.081003,156.839 C497.081003,152.482978 497.766663,148.429519 499.138003,144.6785 C500.509343,140.927481 502.445324,137.700847 504.946003,134.9985 C507.446682,132.296153 510.451486,130.158508 513.960503,128.5855 C517.469521,127.012492 521.321315,126.226 525.516003,126.226 C527.371346,126.226 529.22666,126.488164 531.082003,127.0125 C532.937346,127.536836 534.651495,128.242662 536.224503,129.13 C537.797511,130.017338 539.188997,131.065994 540.399003,132.276 C541.609009,133.486006 542.576999,134.736327 543.303003,136.027 L543.303003,101.3 L561.816003,101.3 L561.816003,186 L543.303003,186 L543.303003,177.772 Z M573.384003,108.318 C573.384003,105.01065 574.513325,102.227678 576.772003,99.969 C579.030681,97.710322 581.853986,96.581 585.242003,96.581 C586.936012,96.581 588.508996,96.883497 589.961003,97.4885 C591.41301,98.093503 592.683498,98.9203281 593.772503,99.969 C594.861508,101.017672 595.7085,102.267993 596.313503,103.72 C596.918506,105.172007 597.221003,106.704659 597.221003,108.318 C597.221003,109.931341 596.918506,111.443826 596.313503,112.8555 C595.7085,114.267174 594.861508,115.517495 593.772503,116.6065 C592.683498,117.695505 591.41301,118.542497 589.961003,119.1475 C588.508996,119.752503 586.936012,120.055 585.242003,120.055 C583.547995,120.055 581.995177,119.752503 580.583503,119.1475 C579.171829,118.542497 577.921508,117.695505 576.832503,116.6065 C575.743498,115.517495 574.896506,114.267174 574.291503,112.8555 C573.6865,111.443826 573.384003,109.931341 573.384003,108.318 Z M576.046003,127.678 L594.559003,127.678 L594.559003,186 L576.046003,186 L576.046003,127.678 Z M616.542003,127.678 L630.699003,164.341 L644.977003,127.678 L664.337003,127.678 L637.959003,186 L623.197003,186 L597.182003,127.678 L616.542003,127.678 Z M677.971003,161.316 C678.05167,163.090676 678.313834,164.764492 678.757503,166.3375 C679.201172,167.910508 679.927165,169.281827 680.935503,170.4515 C681.943841,171.621173 683.254662,172.54883 684.868003,173.2345 C686.481344,173.92017 688.497991,174.263 690.918003,174.263 C694.144686,174.263 696.584828,173.617673 698.238503,172.327 C699.892178,171.036327 701.041666,169.463343 701.687003,167.608 L719.837003,167.608 C719.433668,170.35068 718.485844,172.931988 716.993503,175.352 C715.501162,177.772012 713.524849,179.889491 711.064503,181.7045 C708.604157,183.519509 705.700186,184.951328 702.352503,186 C699.00482,187.048672 695.233691,187.573 691.039003,187.573 C685.956978,187.573 681.459856,186.826841 677.547503,185.3345 C673.63515,183.842159 670.348016,181.72468 667.686003,178.982 C665.02399,176.23932 663.007343,172.992519 661.636003,169.2415 C660.264663,165.490481 659.579003,161.356356 659.579003,156.839 C659.579003,152.563645 660.244496,148.570685 661.575503,144.86 C662.90651,141.149315 664.882823,137.902514 667.504503,135.1195 C670.126183,132.336486 673.352817,130.138341 677.184503,128.525 C681.016189,126.911659 685.472978,126.105 690.555003,126.105 C695.153026,126.105 699.287151,126.830993 702.957503,128.283 C706.627855,129.735007 709.773823,131.670988 712.395503,134.091 C715.017183,136.511012 717.033829,139.334317 718.445503,142.561 C719.857177,145.787683 720.563003,149.175649 720.563003,152.725 C720.563003,153.935006 720.542837,155.22566 720.502503,156.597 C720.46217,157.96834 720.280671,159.541324 719.958003,161.316 L677.971003,161.316 Z M690.434003,138.447 C686.803985,138.447 683.819348,139.495656 681.480003,141.593 C679.140658,143.690344 677.971003,146.715314 677.971003,150.668 L702.413003,150.668 C702.413003,146.876648 701.303847,143.892011 699.085503,141.714 C696.867159,139.535989 693.983354,138.447 690.434003,138.447 Z" id="deepdive" fill="#FFFFFF"></path>
                <path d="M293.804,51.956 C291.706656,51.956 289.790842,52.3593293 288.0565,53.166 C286.322158,53.9726707 284.850006,55.0414933 283.64,56.3725 C282.429994,57.7035067 281.48217,59.2764909 280.7965,61.0915 C280.11083,62.9065091 279.768,64.8223232 279.768,66.839 C279.768,68.8556767 280.11083,70.7714909 280.7965,72.5865 C281.48217,74.4015091 282.429994,75.9744933 283.64,77.3055 C284.850006,78.6365067 286.322158,79.7053293 288.0565,80.512 C289.790842,81.3186707 291.706656,81.722 293.804,81.722 C295.820677,81.722 297.675992,81.3186707 299.37,80.512 C301.064008,79.7053293 302.515994,78.6365067 303.726,77.3055 C304.936006,75.9744933 305.88383,74.4015091 306.5695,72.5865 C307.25517,70.7714909 307.598,68.8556767 307.598,66.839 C307.598,64.8223232 307.25517,62.9065091 306.5695,61.0915 C305.88383,59.2764909 304.936006,57.7035067 303.726,56.3725 C302.515994,55.0414933 301.064008,53.9726707 299.37,53.166 C297.675992,52.3593293 295.820677,51.956 293.804,51.956 Z M279.768,46.027 C280.494004,44.7363269 281.461994,43.486006 282.672,42.276 C283.882006,41.0659939 285.293659,40.0173378 286.907,39.13 C288.520341,38.2426622 290.234491,37.536836 292.0495,37.0125 C293.864509,36.488164 295.73999,36.226 297.676,36.226 C301.870688,36.226 305.722482,37.0124921 309.2315,38.5855 C312.740518,40.1585079 315.745321,42.2961532 318.246,44.9985 C320.746679,47.7008468 322.68266,50.9274812 324.054,54.6785 C325.42534,58.4295188 326.111,62.4829782 326.111,66.839 C326.111,71.1950218 325.42534,75.2484812 324.054,78.9995 C322.68266,82.7505188 320.746679,85.9771532 318.246,88.6795 C315.745321,91.3818468 312.740518,93.5194921 309.2315,95.0925 C305.722482,96.6655079 301.870688,97.452 297.676,97.452 C295.73999,97.452 293.864509,97.189836 292.0495,96.6655 C290.234491,96.141164 288.520341,95.4353378 286.907,94.548 C285.293659,93.6606622 283.882006,92.6321725 282.672,91.4625 C281.461994,90.2928275 280.494004,89.0223402 279.768,87.651 L279.768,122.378 L261.255,122.378 L261.255,37.678 L279.768,37.678 L279.768,46.027 Z M352.973,71.316 C353.053667,73.0906755 353.315831,74.7644921 353.7595,76.3375 C354.203169,77.9105079 354.929162,79.2818275 355.9375,80.4515 C356.945838,81.6211725 358.256659,82.5488299 359.87,83.2345 C361.483341,83.9201701 363.499988,84.263 365.92,84.263 C369.146683,84.263 371.586825,83.6176731 373.2405,82.327 C374.894175,81.0363269 376.043663,79.4633426 376.689,77.608 L394.839,77.608 C394.435665,80.3506804 393.487841,82.9319879 391.9955,85.352 C390.503159,87.7720121 388.526846,89.8894909 386.0665,91.7045 C383.606154,93.5195091 380.702183,94.9513281 377.3545,96 C374.006817,97.0486719 370.235688,97.573 366.041,97.573 C360.958975,97.573 356.461853,96.8268408 352.5495,95.3345 C348.637147,93.8421592 345.350013,91.7246804 342.688,88.982 C340.025987,86.2393196 338.00934,82.9925188 336.638,79.2415 C335.26666,75.4904812 334.581,71.3563559 334.581,66.839 C334.581,62.5636453 335.246493,58.5706852 336.5775,54.86 C337.908507,51.1493148 339.88482,47.9025139 342.5065,45.1195 C345.12818,42.3364861 348.354814,40.1383414 352.1865,38.525 C356.018186,36.9116586 360.474975,36.105 365.557,36.105 C370.155023,36.105 374.289148,36.8309927 377.9595,38.283 C381.629852,39.7350073 384.77582,41.6709879 387.3975,44.091 C390.01918,46.5110121 392.035826,49.3343172 393.4475,52.561 C394.859174,55.7876828 395.565,59.1756489 395.565,62.725 C395.565,63.935006 395.544834,65.2256598 395.5045,66.597 C395.464166,67.9683402 395.282668,69.5413245 394.96,71.316 L352.973,71.316 Z M365.436,48.447 C361.805982,48.447 358.821345,49.4956562 356.482,51.593 C354.142655,53.6903438 352.973,56.7153136 352.973,60.668 L377.415,60.668 C377.415,56.8766477 376.305844,53.8920109 374.0875,51.714 C371.869156,49.5359891 368.985351,48.447 365.436,48.447 Z M408.149,37.678 L426.662,37.678 L426.662,46.148 C428.275341,43.0019843 430.715484,40.561842 433.9825,38.8275 C437.249516,37.093158 441.181977,36.226 445.78,36.226 C449.571352,36.226 452.83832,36.8108275 455.581,37.9805 C458.32368,39.1501725 460.501659,40.7836562 462.115,42.881 C463.970343,45.139678 465.200497,47.7411519 465.8055,50.6855 C466.410503,53.6298481 466.713,57.1993124 466.713,61.394 L466.713,96 L448.2,96 L448.2,66.113 C448.2,61.9183124 447.453841,58.5101798 445.9615,55.8885 C444.469159,53.2668202 441.787019,51.956 437.915,51.956 C434.123648,51.956 431.300343,53.2869867 429.445,55.949 C427.589657,58.6110133 426.662,62.2006441 426.662,66.718 L426.662,96 L408.149,96 L408.149,37.678 Z M512.209,61.636 C514.790346,62.3620036 517.210322,63.1484958 519.469,63.9955 C521.727678,64.8425042 523.703992,65.8911604 525.398,67.1415 C527.092008,68.3918396 528.443162,69.9446574 529.4515,71.8 C530.459838,73.6553426 530.964,75.9946525 530.964,78.818 C530.964,82.286684 530.27834,85.2108214 528.907,87.5905 C527.53566,89.9701786 525.640012,91.9061592 523.22,93.3985 C520.799988,94.8908408 517.996849,95.9596634 514.8105,96.605 C511.624151,97.2503366 508.216018,97.573 504.586,97.573 C496.277292,97.573 489.723191,95.7580181 484.9235,92.128 C480.123809,88.4979818 477.724,83.2950339 477.724,76.519 L495.874,76.519 C495.874,79.5843487 496.741158,81.7824933 498.4755,83.1135 C500.209842,84.4445067 502.44832,85.11 505.191,85.11 C507.449678,85.11 509.284826,84.6865042 510.6965,83.8395 C512.108174,82.9924958 512.814,81.6010097 512.814,79.665 C512.814,78.535661 512.511503,77.6281701 511.9065,76.9425 C511.301497,76.2568299 510.37384,75.611503 509.1235,75.0065 C507.87316,74.401497 506.259843,73.796503 504.2835,73.1915 C502.307157,72.586497 499.94768,71.8403378 497.205,70.953 C494.784988,70.2269964 492.486011,69.4405042 490.308,68.5935 C488.129989,67.7464958 486.214175,66.718006 484.5605,65.508 C482.906825,64.2979939 481.596005,62.7653426 480.628,60.91 C479.659995,59.0546574 479.176,56.7153474 479.176,53.892 C479.176,47.8419697 481.495143,43.3650145 486.1335,40.461 C490.771857,37.5569855 497.043627,36.105 504.949,36.105 C509.143688,36.105 512.834151,36.6091616 516.0205,37.6175 C519.206849,38.6258384 521.82849,40.0173245 523.8855,41.792 C525.94251,43.5666755 527.495328,45.6639879 528.544,48.084 C529.592672,50.5040121 530.117,53.0853196 530.117,55.828 L511.846,55.828 C511.846,53.4079879 511.22084,51.5325067 509.9705,50.2015 C508.72016,48.8704933 506.804346,48.205 504.223,48.205 C502.367657,48.205 500.75434,48.6284958 499.383,49.4755 C498.01166,50.3225042 497.326,51.6333245 497.326,53.408 C497.326,54.4566719 497.648663,55.3238299 498.294,56.0095 C498.939337,56.6951701 499.88716,57.3203305 501.1375,57.885 C502.38784,58.4496695 503.940657,59.0143305 505.796,59.579 C507.651343,60.1436695 509.788988,60.8293293 512.209,61.636 Z M540.644,18.318 C540.644,15.0106501 541.773322,12.227678 544.032,9.969 C546.290678,7.71032204 549.113983,6.581 552.502,6.581 C554.196008,6.581 555.768993,6.88349697 557.221,7.4885 C558.673007,8.09350302 559.943495,8.92032809 561.0325,9.969 C562.121505,11.0176719 562.968497,12.2679927 563.5735,13.72 C564.178503,15.1720073 564.481,16.7046586 564.481,18.318 C564.481,19.9313414 564.178503,21.4438263 563.5735,22.8555 C562.968497,24.2671737 562.121505,25.5174946 561.0325,26.6065 C559.943495,27.6955054 558.673007,28.542497 557.221,29.1475 C555.768993,29.752503 554.196008,30.055 552.502,30.055 C550.807992,30.055 549.255174,29.752503 547.8435,29.1475 C546.431826,28.542497 545.181505,27.6955054 544.0925,26.6065 C543.003495,25.5174946 542.156503,24.2671737 541.5515,22.8555 C540.946497,21.4438263 540.644,19.9313414 540.644,18.318 Z M543.306,37.678 L561.819,37.678 L561.819,96 L543.306,96 L543.306,37.678 Z M605.863,97.573 C600.861642,97.573 596.36452,96.7461749 592.3715,95.0925 C588.37848,93.4388251 584.990514,91.2205139 582.2075,88.4375 C579.424486,85.6544861 577.286841,82.4076852 575.7945,78.697 C574.302159,74.9863148 573.556,71.0336876 573.556,66.839 C573.556,62.6443124 574.302159,58.6916852 575.7945,54.981 C577.286841,51.2703148 579.424486,48.0235139 582.2075,45.2405 C584.990514,42.4574861 588.37848,40.2391749 592.3715,38.5855 C596.36452,36.9318251 600.861642,36.105 605.863,36.105 C610.945025,36.105 615.48248,36.9318251 619.4755,38.5855 C623.46852,40.2391749 626.856486,42.4574861 629.6395,45.2405 C632.422514,48.0235139 634.560159,51.2703148 636.0525,54.981 C637.544841,58.6916852 638.291,62.6443124 638.291,66.839 C638.291,71.0336876 637.544841,74.9863148 636.0525,78.697 C634.560159,82.4076852 632.422514,85.6544861 629.6395,88.4375 C626.856486,91.2205139 623.46852,93.4388251 619.4755,95.0925 C615.48248,96.7461749 610.945025,97.573 605.863,97.573 Z M605.863,81.722 C607.960344,81.722 609.876158,81.3388372 611.6105,80.5725 C613.344842,79.8061628 614.816994,78.7373402 616.027,77.366 C617.237006,75.9946598 618.18483,74.4216755 618.8705,72.647 C619.55617,70.8723245 619.899,68.9363438 619.899,66.839 C619.899,64.8223232 619.55617,62.9065091 618.8705,61.0915 C618.18483,59.2764909 617.237006,57.7035067 616.027,56.3725 C614.816994,55.0414933 613.344842,53.9726707 611.6105,53.166 C609.876158,52.3593293 607.960344,51.956 605.863,51.956 C603.765656,51.956 601.870008,52.3593293 600.176,53.166 C598.481992,53.9726707 597.030006,55.0414933 595.82,56.3725 C594.609994,57.7035067 593.682337,59.2764909 593.037,61.0915 C592.391663,62.9065091 592.069,64.8223232 592.069,66.839 C592.069,68.9363438 592.391663,70.8723245 593.037,72.647 C593.682337,74.4216755 594.609994,75.9946598 595.82,77.366 C597.030006,78.7373402 598.481992,79.8061628 600.176,80.5725 C601.870008,81.3388372 603.765656,81.722 605.863,81.722 Z M650.028,37.678 L668.541,37.678 L668.541,46.148 C670.154341,43.0019843 672.594484,40.561842 675.8615,38.8275 C679.128516,37.093158 683.060977,36.226 687.659,36.226 C691.450352,36.226 694.71732,36.8108275 697.46,37.9805 C700.20268,39.1501725 702.380659,40.7836562 703.994,42.881 C705.849343,45.139678 707.079497,47.7411519 707.6845,50.6855 C708.289503,53.6298481 708.592,57.1993124 708.592,61.394 L708.592,96 L690.079,96 L690.079,66.113 C690.079,61.9183124 689.332841,58.5101798 687.8405,55.8885 C686.348159,53.2668202 683.666019,51.956 679.794,51.956 C676.002648,51.956 673.179343,53.2869867 671.324,55.949 C669.468657,58.6110133 668.541,62.2006441 668.541,66.718 L668.541,96 L650.028,96 L650.028,37.678 Z" id="pension" fill="#FFFFFF"></path>
            </g>
        </g>
    </g>
</svg>