<?xml version="1.0" encoding="UTF-8"?>
<svg width="889px" height="167px" viewBox="0 0 889 167" version="1.1" xmlns="http://www.w3.org/2000/svg" xmlns:xlink="http://www.w3.org/1999/xlink">
    <!-- Generator: Sketch 47.1 (45422) - http://www.bohemiancoding.com/sketch -->
    <title>Group 2</title>
    <desc>Created with Sketch.</desc>
    <defs></defs>
    <g id="Page-1" stroke="none" stroke-width="1" fill="none" fill-rule="evenodd">
        <g id="Desktop-HD" transform="translate(-350.000000, -731.000000)" fill="#FFFFFF">
            <g id="Group-2" transform="translate(350.000000, 731.000000)">
                <path d="M40.0000001,0 C17.9404253,0 0,17.9404255 0,40 C0,62.0595745 17.9404253,80 40.0000001,80 C62.0595745,80 80,62.0595745 80,40 C80,17.9404255 62.0595745,0 40.0000001,0 Z M39.5000002,8 C56.8839573,8 71,22.1160428 71,39.5 C71,56.8839572 56.8839573,71 39.5000002,71 C22.1160427,71 8,56.8839572 8,39.5 C8,22.1160428 22.1160427,8 39.5000002,8 Z M127.506628,16.0013922 C127.101803,15.9940922 126.692603,16.0154614 126.28115,16.0664294 C114.030885,17.5954687 106.735286,23.1678351 102.45957,28.3325903 C98.421394,27.2112947 94.2476133,26.3960725 90.039766,25.8863927 C87.8001054,25.6145635 85.7637855,27.2115601 85.5262458,29.4541511 C85.2547717,31.6967422 86.8496816,33.7357267 89.0893423,33.9735773 C93.7722691,34.5172353 98.3873274,35.5363299 102.832714,36.9294546 C104.563361,37.473113 106.429613,36.8277837 107.44764,35.332723 C110.365986,31.0174345 116.168611,25.546739 127.33298,24.1536143 C127.434783,24.1536143 127.571049,24.1196356 127.706786,24.3235075 C127.842523,24.5273794 127.74072,24.6630283 127.706786,24.7309856 C123.295333,31.7645666 122.005302,39.035866 123.939555,45.8315964 L123.939555,45.9337974 C123.973489,47.1230503 124.516437,48.2443458 125.466596,48.9918761 C134.425239,56.229329 140.906946,65.4372787 144.232502,75.5629171 C144.77545,77.227871 146.336558,78.3834102 148.101139,78.3834102 L148.168743,78.3834102 L153.564422,78.3834102 C155.430806,78.3834102 156.924045,79.8786034 156.924045,81.7474293 L156.924045,100.095901 C156.924045,101.964727 155.430806,103.459921 153.564422,103.459921 L148.40668,103.459921 C146.608165,103.459921 145.047189,104.615195 144.504241,106.348106 C141.585895,115.930086 135.782873,124.730424 127.77439,131.865941 L127.706786,131.933633 L127.672322,131.96748 C127.366914,132.239309 127.061771,132.477424 126.756362,132.749254 C126.722428,132.783232 126.688229,132.816946 126.654295,132.816946 C117.967126,140.699993 117.085365,149.97643 117.017497,152.626765 L117.017497,152.728966 L117.017497,158.742922 L92.5503713,158.742922 L92.5503713,153.000398 C92.5503713,151.845124 92.0752918,150.757674 91.1930012,149.976165 C90.3107107,149.194656 89.1912774,148.820891 88.0375128,148.956806 C85.3227726,149.228635 82.6080324,149.398793 79.8932922,149.398793 C76.4319985,149.398793 72.9367705,149.160943 69.5433453,148.71922 C68.3895807,148.549327 67.2018819,148.923225 66.3195913,149.704734 C65.4373007,150.486243 64.9284193,151.607538 64.9284193,152.762812 L64.9284193,158.776769 L40.461294,158.776769 L40.461294,156.976298 L40.461294,156.806404 C40.2576885,152.38918 38.8665165,141.108002 30.0775448,132.069681 C25.9036318,127.754392 22.1711294,122.080222 18.9813097,115.182556 C18.9473754,115.114598 18.9469777,115.080487 18.9130434,115.046508 C17.0127253,111.376814 15.5877517,107.503115 14.6036584,103.527613 C14.6036584,103.493634 14.5698569,103.45939 14.5698569,103.425412 L14.5698569,103.35772 C13.6196978,99.4501745 13.1442206,95.4408261 13.1442206,91.4313451 C13.1442206,88.611117 13.3822904,85.7904913 13.8573699,83.0382205 C14.2306467,80.8296081 12.7374072,78.7233293 10.4977466,78.3495641 C8.29202018,77.9757989 6.18783117,79.4709921 5.8145544,81.7135832 C5.27160636,84.9075765 5,88.2032407 5,91.4651913 C5,96.0523093 5.54334575,100.673671 6.59530757,105.158853 C6.59530757,105.22681 6.62897645,105.328481 6.66291071,105.396439 C6.66291071,105.396439 6.69671262,105.464263 6.69671262,105.600178 C7.81654294,110.119339 9.47932131,114.57094 11.6171792,118.750314 C15.1802757,126.463468 19.4224549,132.851322 24.2411188,137.812205 C30.994035,144.777829 32.1474019,153.578432 32.3170731,157.146191 L32.3170731,158.87897 L32.3170731,159.218756 C32.3170731,159.388649 32.3176032,159.558675 32.3515374,159.69459 C32.7587484,163.806007 36.2537114,166.965491 40.3936902,166.965491 L64.9622212,166.965491 C69.4415425,166.965491 73.0726399,163.330306 73.0726399,158.845123 L73.0726399,157.316084 C76.8393419,157.621892 80.6056468,157.655871 84.3723488,157.485977 L84.3723488,158.87897 C84.3723488,163.364152 88.0034462,167 92.4827675,167 L117.051299,167 C121.53062,167 125.161717,163.364152 125.161717,158.87897 L125.161717,152.864351 C125.195651,151.471226 125.73807,144.743983 132.083775,138.967612 L133.000397,138.151992 L133.068001,138.083637 C133.135869,138.01568 133.238069,137.947855 133.305938,137.879898 C141.551961,130.50653 147.727995,121.468474 151.291091,111.648643 L153.496818,111.648643 C159.842523,111.648643 165,106.483756 165,100.129748 L165,81.7812754 C165,75.3932888 159.842523,70.2285337 153.496818,70.2285337 L150.917285,70.2285337 C147.048781,60.1708527 140.465668,51.0303302 131.710631,43.6229841 L131.710631,43.5891379 C130.421129,39.0359985 131.371421,34.1434705 134.56124,29.0466727 C136.325821,26.2264446 136.325954,22.726378 134.527438,19.9401286 C132.953738,17.5021603 130.340403,16.052493 127.506628,16.0013922 Z" id="Shape-Copy-2" fill-rule="nonzero" transform="translate(82.500000, 83.500000) scale(-1, 1) translate(-82.500000, -83.500000) "></path>
                <text id="Future-of-Pensions" font-family="GTWalsheimBold, GT Walsheim" font-size="82" font-weight="bold" letter-spacing="-1.20117188">
                    <tspan x="184.484547" y="87">Future of Pensions</tspan>
                </text>
                <text id="a-blockchain-confere" font-family="CircularSpotifyTxT-Light, Circular Spotify Tx T" font-size="58" font-weight="300" letter-spacing="2.41666675">
                    <tspan x="184" y="140">a blockchain conferenc</tspan>
                    <tspan x="823.314668" y="140" letter-spacing="2.92013907">e</tspan>
                </text>
            </g>
        </g>
    </g>
</svg>