<?xml version="1.0" encoding="UTF-8"?>
<svg width="487px" height="610px" viewBox="0 0 487 610" version="1.1" xmlns="http://www.w3.org/2000/svg" xmlns:xlink="http://www.w3.org/1999/xlink">
    <!-- Generator: Sketch 47.1 (45422) - http://www.bohemiancoding.com/sketch -->
    <title>melonport</title>
    <desc>Created with Sketch.</desc>
    <defs></defs>
    <g id="Page-1" stroke="none" stroke-width="1" fill="none" fill-rule="evenodd">
        <g id="Artboard-2" transform="translate(-6015.000000, -5719.000000)" fill="#000D29">
            <g id="melonport" transform="translate(6015.000000, 5719.000000)">
                <polygon id="Shape" fill-rule="nonzero" points="198.4 301.6 203.1 304 202.9 309.3 164.4 331.6 159.9 323.9"></polygon>
                <polygon id="Shape" fill-rule="nonzero" points="34.1 396.3 38.5 404 79.3 380.5 74.9 372.8"></polygon>
                <polygon id="Shape" fill-rule="nonzero" points="98.2 359.7 102.7 367.4 141.1 345.1 136.7 337.4"></polygon>
                <polygon id="Shape" fill-rule="nonzero" points="287.6 301.6 282.9 304 283.1 309.3 321.6 331.6 326.1 323.9"></polygon>
                <polygon id="Shape" fill-rule="nonzero" points="451.9 396.3 447.5 404 406.7 380.5 411.1 372.8"></polygon>
                <polygon id="Shape" fill-rule="nonzero" points="387.8 359.7 383.3 367.4 344.8 345.1 349.3 337.4"></polygon>
                <polygon id="Shape" points="246.9 161.7 238 161.7 238 117.2 246.9 117.2"></polygon>
                <polygon id="Shape" points="246.9 232.9 242.5 234.7 238 232.9 238 188.4 246.9 188.4"></polygon>
                <polygon id="Shape" points="238 43.4 246.9 43.4 246.9 90.5 238 90.5"></polygon>
                <path d="M252.9,6.2 L476.2,135.1 L483.7,139.4 L486.1,140.8 L486.1,143.5 L486.1,152.1 L486.1,281 L486.1,410 L486.1,418.6 L486.1,421.3 L483.7,422.7 L476.2,427 L364.5,491.5 L307,524.7 L299.8,528.8 L299.8,520.5 L299.8,486.1 L299.8,483.3 L302.2,481.9 L344.7,457.4 L424.4,411.4 L424.4,411.4 L446.5,398.7 L446.5,376.6 L446.5,281.1 L446.5,186.3 L262.7,292.4 L262.7,561 L262.7,569.6 L262.7,595.4 L262.7,598.1 L260.3,599.5 L252.8,603.8 L245.3,608.1 L242.9,609.5 L240.5,608.1 L233,603.8 L225.5,599.5 L223.1,598.1 L223.1,595.4 L223.1,569.6 L223.1,561 L223.1,292.4 L39.4,186.2 L39.4,281 L39.4,382 L39.4,393.5 L39.4,393.5 L39.4,398.8 L53.7,407 L141.1,457.5 L183.6,482 L186,483.4 L186,486.1 L186,520.5 L186,528.8 L178.8,524.7 L121.3,491.5 L121.3,491.5 L9.8,427 L2.3,422.7 L0,421.3 L0,418.6 L0,410 L0,281.1 L0,152.2 L0,143.6 L0,140.9 L2.4,139.5 L9.9,135.2 C84.3,92.2 158.8,49.2 233.2,6.3 L233.2,6.3 L240.7,2 L243.1,0.6 L245.5,2 L252.9,6.2 L252.9,6.2 L252.9,6.2 Z M59,152.2 L243,258.4 L427,152.2 L258.4,54.9 L243,45.9 L212.6,63.5 L210.5,64.7 C160,93.8 109.5,123 59,152.2 L59,152.2 Z" id="Shape" fill-rule="nonzero"></path>
            </g>
        </g>
    </g>
</svg>